<?xml version="1.0" encoding="us-ascii" standalone="no"?><svg xmlns="http://www.w3.org/2000/svg" xmlns:xlink="http://www.w3.org/1999/xlink" contentStyleType="text/css" height="480px" preserveAspectRatio="none" style="width:5914px;height:480px;background:#FFFFFF;" version="1.1" viewBox="0 0 5914 480" width="5914px" zoomAndPan="magnify"><defs/><g><!--cluster classes--><g id="cluster_classes"><path d="M8.5,6 L69.5,6 A3.75,3.75 0 0 1 72,8.5 L79,28.2969 L5904.5,28.2969 A2.5,2.5 0 0 1 5907,30.7969 L5907,470.5 A2.5,2.5 0 0 1 5904.5,473 L8.5,473 A2.5,2.5 0 0 1 6,470.5 L6,8.5 A2.5,2.5 0 0 1 8.5,6 " fill="none" style="stroke:#000000;stroke-width:1.5;"/><line style="stroke:#000000;stroke-width:1.5;" x1="6" x2="79" y1="28.2969" y2="28.2969"/><text fill="#000000" font-family="sans-serif" font-size="14" font-weight="bold" lengthAdjust="spacing" textLength="60" x="10" y="20.9951">classes</text></g><!--class Observateur--><g id="elem_Observateur"><rect codeLine="3" fill="#F1F1F1" height="64.2969" id="Observateur" rx="2.5" ry="2.5" style="stroke:#181818;stroke-width:0.5;" width="142" x="2818" y="41"/><ellipse cx="2842.9" cy="57" fill="#B4A7E5" rx="11" ry="11" style="stroke:#181818;stroke-width:1.0;"/><path d="M2843.8531,53.7813 L2845.5719,53.7813 C2845.9625,53.7813 2846.15,53.75 2846.275,53.6719 C2846.5406,53.5156 2846.6813,53.2344 2846.6813,52.9375 C2846.6813,52.6719 2846.5719,52.4063 2846.3375,52.2344 C2846.1656,52.125 2846.025,52.0938 2845.5719,52.0938 L2840.4313,52.0938 C2839.9938,52.0938 2839.8688,52.1094 2839.7125,52.2031 C2839.4625,52.3594 2839.3063,52.6563 2839.3063,52.9375 C2839.3063,53.2188 2839.4469,53.4688 2839.6656,53.6406 C2839.8219,53.75 2840.0094,53.7813 2840.4313,53.7813 L2842.15,53.7813 L2842.15,60.2969 L2840.4313,60.2969 C2839.9938,60.2969 2839.8688,60.3125 2839.7125,60.4219 C2839.4625,60.5781 2839.3063,60.8594 2839.3063,61.1563 C2839.3063,61.4063 2839.4469,61.6719 2839.6656,61.8281 C2839.8219,61.9531 2840.025,62 2840.4313,62 L2845.5719,62 C2846.3219,62 2846.6813,61.7188 2846.6813,61.1563 C2846.6813,60.875 2846.5719,60.625 2846.3375,60.4531 C2846.1656,60.3281 2846.025,60.2969 2845.5719,60.2969 L2843.8531,60.2969 L2843.8531,53.7813 Z " fill="#000000"/><text fill="#000000" font-family="sans-serif" font-size="14" font-style="italic" lengthAdjust="spacing" textLength="88" x="2859.1" y="61.8467">Observateur</text><line style="stroke:#181818;stroke-width:0.5;" x1="2819" x2="2959" y1="73" y2="73"/><line style="stroke:#181818;stroke-width:0.5;" x1="2819" x2="2959" y1="81" y2="81"/><ellipse cx="2829" cy="94.6484" fill="#84BE84" rx="3" ry="3" style="stroke:#038048;stroke-width:1.0;"/><text fill="#000000" font-family="sans-serif" font-size="14" lengthAdjust="spacing" textLength="116" x="2838" y="97.9951">actualiser(Sujet)</text></g><!--class Vue--><g id="elem_Vue"><rect codeLine="7" fill="#F1F1F1" height="210.9688" id="Vue" rx="2.5" ry="2.5" style="stroke:#181818;stroke-width:0.5;" width="216" x="22" y="205.5"/><ellipse cx="112.25" cy="221.5" fill="#ADD1B2" rx="11" ry="11" style="stroke:#181818;stroke-width:1.0;"/><path d="M114.5938,217.1719 C113.6563,216.7344 113.0625,216.5938 112.1875,216.5938 C109.5625,216.5938 107.5625,218.6719 107.5625,221.3906 L107.5625,222.5156 C107.5625,225.0938 109.6719,226.9844 112.5625,226.9844 C113.7813,226.9844 114.9375,226.6875 115.6875,226.1406 C116.2656,225.7344 116.5938,225.2813 116.5938,224.8906 C116.5938,224.4375 116.2031,224.0469 115.7344,224.0469 C115.5156,224.0469 115.3125,224.125 115.125,224.3125 C114.6719,224.7969 114.6719,224.7969 114.4844,224.8906 C114.0625,225.1563 113.375,225.2813 112.6094,225.2813 C110.5625,225.2813 109.2656,224.1875 109.2656,222.4844 L109.2656,221.3906 C109.2656,219.6094 110.5156,218.2969 112.25,218.2969 C112.8281,218.2969 113.4375,218.4531 113.9063,218.7031 C114.3906,218.9844 114.5625,219.2031 114.6563,219.6094 C114.7188,220.0156 114.75,220.1406 114.8906,220.2656 C115.0313,220.4063 115.2656,220.5156 115.4844,220.5156 C115.75,220.5156 116.0156,220.375 116.1875,220.1563 C116.2969,220 116.3281,219.8125 116.3281,219.3906 L116.3281,217.9688 C116.3281,217.5313 116.3125,217.4063 116.2188,217.25 C116.0625,216.9844 115.7813,216.8438 115.4844,216.8438 C115.1875,216.8438 114.9844,216.9375 114.7656,217.25 L114.5938,217.1719 Z " fill="#000000"/><text fill="#000000" font-family="sans-serif" font-size="14" lengthAdjust="spacing" textLength="27" x="132.75" y="226.3467">Vue</text><line style="stroke:#181818;stroke-width:0.5;" x1="23" x2="237" y1="237.5" y2="237.5"/><rect fill="none" height="6" style="stroke:#C82930;stroke-width:1.0;" width="6" x="30" y="248.1484"/><text fill="#000000" font-family="sans-serif" font-size="14" lengthAdjust="spacing" textLength="159" x="42" y="254.4951">vueBureau: VueBureau</text><rect fill="none" height="6" style="stroke:#C82930;stroke-width:1.0;" width="6" x="30" y="264.4453"/><text fill="#000000" font-family="sans-serif" font-size="14" lengthAdjust="spacing" textLength="131" x="42" y="270.792">vueListe: VueListe</text><rect fill="none" height="6" style="stroke:#C82930;stroke-width:1.0;" width="6" x="30" y="280.7422"/><text fill="#000000" font-family="sans-serif" font-size="14" lengthAdjust="spacing" textLength="145" x="42" y="287.0889">vueGantt: VueGantt</text><rect fill="none" height="6" style="stroke:#C82930;stroke-width:1.0;" width="6" x="30" y="297.0391"/><text fill="#000000" font-family="sans-serif" font-size="14" lengthAdjust="spacing" textLength="169" x="42" y="303.3857">vueArchive: VueArchive</text><rect fill="none" height="6" style="stroke:#C82930;stroke-width:1.0;" width="6" x="30" y="313.3359"/><text fill="#000000" font-family="sans-serif" font-size="14" lengthAdjust="spacing" textLength="153" x="42" y="319.6826">courant: Observateur</text><rect fill="none" height="6" style="stroke:#C82930;stroke-width:1.0;" width="6" x="30" y="329.6328"/><text fill="#000000" font-family="sans-serif" font-size="14" lengthAdjust="spacing" textLength="107" x="42" y="335.9795">sujet: Systeme</text><line style="stroke:#181818;stroke-width:0.5;" x1="23" x2="237" y1="343.2813" y2="343.2813"/><ellipse cx="33" cy="356.9297" fill="#84BE84" rx="3" ry="3" style="stroke:#038048;stroke-width:1.0;"/><text fill="#000000" font-family="sans-serif" font-size="14" lengthAdjust="spacing" textLength="100" x="42" y="360.2764">Vue(Systeme)</text><ellipse cx="33" cy="373.2266" fill="#84BE84" rx="3" ry="3" style="stroke:#038048;stroke-width:1.0;"/><text fill="#000000" font-family="sans-serif" font-size="14" lengthAdjust="spacing" textLength="139" x="42" y="376.5732">changerVue(String)</text><ellipse cx="33" cy="389.5234" fill="#84BE84" rx="3" ry="3" style="stroke:#038048;stroke-width:1.0;"/><text fill="#000000" font-family="sans-serif" font-size="14" lengthAdjust="spacing" textLength="190" x="42" y="392.8701">getCourant(): Observateur</text><ellipse cx="33" cy="405.8203" fill="#84BE84" rx="3" ry="3" style="stroke:#038048;stroke-width:1.0;"/><text fill="#000000" font-family="sans-serif" font-size="14" lengthAdjust="spacing" textLength="116" x="42" y="409.167">actualiser(Sujet)</text></g><!--class VueArchive--><g id="elem_VueArchive"><rect codeLine="21" fill="#F1F1F1" height="96.8906" id="VueArchive" rx="2.5" ry="2.5" style="stroke:#181818;stroke-width:0.5;" width="434" x="273" y="262.5"/><ellipse cx="445.25" cy="278.5" fill="#ADD1B2" rx="11" ry="11" style="stroke:#181818;stroke-width:1.0;"/><path d="M447.5938,274.1719 C446.6563,273.7344 446.0625,273.5938 445.1875,273.5938 C442.5625,273.5938 440.5625,275.6719 440.5625,278.3906 L440.5625,279.5156 C440.5625,282.0938 442.6719,283.9844 445.5625,283.9844 C446.7813,283.9844 447.9375,283.6875 448.6875,283.1406 C449.2656,282.7344 449.5938,282.2813 449.5938,281.8906 C449.5938,281.4375 449.2031,281.0469 448.7344,281.0469 C448.5156,281.0469 448.3125,281.125 448.125,281.3125 C447.6719,281.7969 447.6719,281.7969 447.4844,281.8906 C447.0625,282.1563 446.375,282.2813 445.6094,282.2813 C443.5625,282.2813 442.2656,281.1875 442.2656,279.4844 L442.2656,278.3906 C442.2656,276.6094 443.5156,275.2969 445.25,275.2969 C445.8281,275.2969 446.4375,275.4531 446.9063,275.7031 C447.3906,275.9844 447.5625,276.2031 447.6563,276.6094 C447.7188,277.0156 447.75,277.1406 447.8906,277.2656 C448.0313,277.4063 448.2656,277.5156 448.4844,277.5156 C448.75,277.5156 449.0156,277.375 449.1875,277.1563 C449.2969,277 449.3281,276.8125 449.3281,276.3906 L449.3281,274.9688 C449.3281,274.5313 449.3125,274.4063 449.2188,274.25 C449.0625,273.9844 448.7813,273.8438 448.4844,273.8438 C448.1875,273.8438 447.9844,273.9375 447.7656,274.25 L447.5938,274.1719 Z " fill="#000000"/><text fill="#000000" font-family="sans-serif" font-size="14" lengthAdjust="spacing" textLength="81" x="465.75" y="283.3467">VueArchive</text><line style="stroke:#181818;stroke-width:0.5;" x1="274" x2="706" y1="294.5" y2="294.5"/><line style="stroke:#181818;stroke-width:0.5;" x1="274" x2="706" y1="302.5" y2="302.5"/><ellipse cx="284" cy="316.1484" fill="#84BE84" rx="3" ry="3" style="stroke:#038048;stroke-width:1.0;"/><text fill="#000000" font-family="sans-serif" font-size="14" lengthAdjust="spacing" textLength="116" x="293" y="319.4951">actualiser(Sujet)</text><rect fill="#F24D5C" height="6" style="stroke:#C82930;stroke-width:1.0;" width="6" x="281" y="329.4453"/><text fill="#000000" font-family="sans-serif" font-size="14" lengthAdjust="spacing" textLength="235" x="293" y="335.792">ajouterBouton(HBox, Controleur)</text><rect fill="#F24D5C" height="6" style="stroke:#C82930;stroke-width:1.0;" width="6" x="281" y="345.7422"/><text fill="#000000" font-family="sans-serif" font-size="14" lengthAdjust="spacing" textLength="408" x="293" y="352.0889">ajoutersoustache(TacheMere, Tableau): ArrayList&lt;HBox&gt;</text></g><!--class VueBureau--><g id="elem_VueBureau"><rect codeLine="27" fill="#F1F1F1" height="145.7813" id="VueBureau" rx="2.5" ry="2.5" style="stroke:#181818;stroke-width:0.5;" width="434" x="742" y="238"/><ellipse cx="916.75" cy="254" fill="#ADD1B2" rx="11" ry="11" style="stroke:#181818;stroke-width:1.0;"/><path d="M919.0938,249.6719 C918.1563,249.2344 917.5625,249.0938 916.6875,249.0938 C914.0625,249.0938 912.0625,251.1719 912.0625,253.8906 L912.0625,255.0156 C912.0625,257.5938 914.1719,259.4844 917.0625,259.4844 C918.2813,259.4844 919.4375,259.1875 920.1875,258.6406 C920.7656,258.2344 921.0938,257.7813 921.0938,257.3906 C921.0938,256.9375 920.7031,256.5469 920.2344,256.5469 C920.0156,256.5469 919.8125,256.625 919.625,256.8125 C919.1719,257.2969 919.1719,257.2969 918.9844,257.3906 C918.5625,257.6563 917.875,257.7813 917.1094,257.7813 C915.0625,257.7813 913.7656,256.6875 913.7656,254.9844 L913.7656,253.8906 C913.7656,252.1094 915.0156,250.7969 916.75,250.7969 C917.3281,250.7969 917.9375,250.9531 918.4063,251.2031 C918.8906,251.4844 919.0625,251.7031 919.1563,252.1094 C919.2188,252.5156 919.25,252.6406 919.3906,252.7656 C919.5313,252.9063 919.7656,253.0156 919.9844,253.0156 C920.25,253.0156 920.5156,252.875 920.6875,252.6563 C920.7969,252.5 920.8281,252.3125 920.8281,251.8906 L920.8281,250.4688 C920.8281,250.0313 920.8125,249.9063 920.7188,249.75 C920.5625,249.4844 920.2813,249.3438 919.9844,249.3438 C919.6875,249.3438 919.4844,249.4375 919.2656,249.75 L919.0938,249.6719 Z " fill="#000000"/><text fill="#000000" font-family="sans-serif" font-size="14" lengthAdjust="spacing" textLength="76" x="937.25" y="258.8467">VueBureau</text><line style="stroke:#181818;stroke-width:0.5;" x1="743" x2="1175" y1="270" y2="270"/><line style="stroke:#181818;stroke-width:0.5;" x1="743" x2="1175" y1="278" y2="278"/><ellipse cx="753" cy="291.6484" fill="#84BE84" rx="3" ry="3" style="stroke:#038048;stroke-width:1.0;"/><text fill="#000000" font-family="sans-serif" font-size="14" lengthAdjust="spacing" textLength="116" x="762" y="294.9951">actualiser(Sujet)</text><rect fill="#F24D5C" height="6" style="stroke:#C82930;stroke-width:1.0;" width="6" x="750" y="304.9453"/><text fill="#000000" font-family="sans-serif" font-size="14" lengthAdjust="spacing" textLength="235" x="762" y="311.292">ajouterBouton(HBox, Controleur)</text><rect fill="#F24D5C" height="6" style="stroke:#C82930;stroke-width:1.0;" width="6" x="750" y="321.2422"/><text fill="#000000" font-family="sans-serif" font-size="14" lengthAdjust="spacing" textLength="408" x="762" y="327.5889">ajoutersoustache(TacheMere, Tableau): ArrayList&lt;HBox&gt;</text><rect fill="#F24D5C" height="6" style="stroke:#C82930;stroke-width:1.0;" width="6" x="750" y="337.5391"/><text fill="#000000" font-family="sans-serif" font-size="14" lengthAdjust="spacing" textLength="386" x="762" y="343.8857">createPlaceholderColonne(Tableau, VueBureau): VBox</text><rect fill="#F24D5C" height="6" style="stroke:#C82930;stroke-width:1.0;" width="6" x="750" y="353.8359"/><text fill="#000000" font-family="sans-serif" font-size="14" lengthAdjust="spacing" textLength="370" x="762" y="360.1826">createPlaceholderTache(Tableau, VueBureau): VBox</text><rect fill="#F24D5C" height="6" style="stroke:#C82930;stroke-width:1.0;" width="6" x="750" y="370.1328"/><text fill="#000000" font-family="sans-serif" font-size="14" lengthAdjust="spacing" textLength="333" x="762" y="376.4795">addPlaceholdersColonnes(VueBureau, Tableau)</text></g><!--class VueGantt--><g id="elem_VueGantt"><rect codeLine="36" fill="#F1F1F1" height="292.4531" id="VueGantt" rx="2.5" ry="2.5" style="stroke:#181818;stroke-width:0.5;" width="454" x="1211" y="165"/><ellipse cx="1399.25" cy="181" fill="#ADD1B2" rx="11" ry="11" style="stroke:#181818;stroke-width:1.0;"/><path d="M1401.5938,176.6719 C1400.6563,176.2344 1400.0625,176.0938 1399.1875,176.0938 C1396.5625,176.0938 1394.5625,178.1719 1394.5625,180.8906 L1394.5625,182.0156 C1394.5625,184.5938 1396.6719,186.4844 1399.5625,186.4844 C1400.7813,186.4844 1401.9375,186.1875 1402.6875,185.6406 C1403.2656,185.2344 1403.5938,184.7813 1403.5938,184.3906 C1403.5938,183.9375 1403.2031,183.5469 1402.7344,183.5469 C1402.5156,183.5469 1402.3125,183.625 1402.125,183.8125 C1401.6719,184.2969 1401.6719,184.2969 1401.4844,184.3906 C1401.0625,184.6563 1400.375,184.7813 1399.6094,184.7813 C1397.5625,184.7813 1396.2656,183.6875 1396.2656,181.9844 L1396.2656,180.8906 C1396.2656,179.1094 1397.5156,177.7969 1399.25,177.7969 C1399.8281,177.7969 1400.4375,177.9531 1400.9063,178.2031 C1401.3906,178.4844 1401.5625,178.7031 1401.6563,179.1094 C1401.7188,179.5156 1401.75,179.6406 1401.8906,179.7656 C1402.0313,179.9063 1402.2656,180.0156 1402.4844,180.0156 C1402.75,180.0156 1403.0156,179.875 1403.1875,179.6563 C1403.2969,179.5 1403.3281,179.3125 1403.3281,178.8906 L1403.3281,177.4688 C1403.3281,177.0313 1403.3125,176.9063 1403.2188,176.75 C1403.0625,176.4844 1402.7813,176.3438 1402.4844,176.3438 C1402.1875,176.3438 1401.9844,176.4375 1401.7656,176.75 L1401.5938,176.6719 Z " fill="#000000"/><text fill="#000000" font-family="sans-serif" font-size="14" lengthAdjust="spacing" textLength="69" x="1419.75" y="185.8467">VueGantt</text><line style="stroke:#181818;stroke-width:0.5;" x1="1212" x2="1664" y1="197" y2="197"/><rect fill="none" height="6" style="stroke:#C82930;stroke-width:1.0;" width="6" x="1219" y="207.6484"/><text fill="#000000" font-family="sans-serif" font-size="14" lengthAdjust="spacing" textLength="77" x="1231" y="213.9951">WIDTH: int</text><rect fill="none" height="6" style="stroke:#C82930;stroke-width:1.0;" width="6" x="1219" y="223.9453"/><text fill="#000000" font-family="sans-serif" font-size="14" lengthAdjust="spacing" textLength="82" x="1231" y="230.292">HEIGHT: int</text><rect fill="none" height="6" style="stroke:#C82930;stroke-width:1.0;" width="6" x="1219" y="240.2422"/><text fill="#000000" font-family="sans-serif" font-size="14" lengthAdjust="spacing" textLength="168" x="1231" y="246.5889">SUBTASK_PADDING: int</text><rect fill="none" height="6" style="stroke:#C82930;stroke-width:1.0;" width="6" x="1219" y="256.5391"/><text fill="#000000" font-family="sans-serif" font-size="14" lengthAdjust="spacing" textLength="98" x="1231" y="262.8857">DAY_SIZE: int</text><rect fill="none" height="6" style="stroke:#C82930;stroke-width:1.0;" width="6" x="1219" y="272.8359"/><text fill="#000000" font-family="sans-serif" font-size="14" lengthAdjust="spacing" textLength="120" x="1231" y="279.1826">MONTH_SIZE: int</text><rect fill="none" height="6" style="stroke:#C82930;stroke-width:1.0;" width="6" x="1219" y="289.1328"/><text fill="#000000" font-family="sans-serif" font-size="14" lengthAdjust="spacing" textLength="119" x="1231" y="295.4795">tableau: Tableau</text><rect fill="none" height="6" style="stroke:#C82930;stroke-width:1.0;" width="6" x="1219" y="305.4297"/><text fill="#000000" font-family="sans-serif" font-size="14" lengthAdjust="spacing" textLength="305" x="1231" y="311.7764">taskPositions: Map&lt;TacheMere, Double[]&gt;</text><line style="stroke:#181818;stroke-width:0.5;" x1="1212" x2="1664" y1="319.0781" y2="319.0781"/><ellipse cx="1222" cy="332.7266" fill="#84BE84" rx="3" ry="3" style="stroke:#038048;stroke-width:1.0;"/><text fill="#000000" font-family="sans-serif" font-size="14" lengthAdjust="spacing" textLength="87" x="1231" y="336.0732">buildGantt()</text><ellipse cx="1222" cy="349.0234" fill="#84BE84" rx="3" ry="3" style="stroke:#038048;stroke-width:1.0;"/><text fill="#000000" font-family="sans-serif" font-size="14" lengthAdjust="spacing" textLength="384" x="1231" y="352.3701">determinerBaseDate(Tableau): ArrayList&lt;LocalDate&gt;</text><ellipse cx="1222" cy="365.3203" fill="#84BE84" rx="3" ry="3" style="stroke:#038048;stroke-width:1.0;"/><text fill="#000000" font-family="sans-serif" font-size="14" lengthAdjust="spacing" textLength="269" x="1231" y="368.667">createTimeLine(LocalDate, int): VBox</text><ellipse cx="1222" cy="381.6172" fill="#84BE84" rx="3" ry="3" style="stroke:#038048;stroke-width:1.0;"/><text fill="#000000" font-family="sans-serif" font-size="14" lengthAdjust="spacing" textLength="360" x="1231" y="384.9639">createTask(Tache, double, LocalDate, Color): Pane</text><ellipse cx="1222" cy="397.9141" fill="#84BE84" rx="3" ry="3" style="stroke:#038048;stroke-width:1.0;"/><text fill="#000000" font-family="sans-serif" font-size="14" lengthAdjust="spacing" textLength="428" x="1231" y="401.2607">addTaskAndSubtasks(Tache, double, LocalDate, int): double</text><ellipse cx="1222" cy="414.2109" fill="#84BE84" rx="3" ry="3" style="stroke:#038048;stroke-width:1.0;"/><text fill="#000000" font-family="sans-serif" font-size="14" lengthAdjust="spacing" textLength="379" x="1231" y="417.5576">drawArrowLine(double, double, double, double, Pane)</text><ellipse cx="1222" cy="430.5078" fill="#84BE84" rx="3" ry="3" style="stroke:#038048;stroke-width:1.0;"/><text fill="#000000" font-family="sans-serif" font-size="14" lengthAdjust="spacing" textLength="147" x="1231" y="433.8545">drawDependencies()</text><ellipse cx="1222" cy="446.8047" fill="#84BE84" rx="3" ry="3" style="stroke:#038048;stroke-width:1.0;"/><text fill="#000000" font-family="sans-serif" font-size="14" lengthAdjust="spacing" textLength="116" x="1231" y="450.1514">actualiser(Sujet)</text></g><!--class VueListe--><g id="elem_VueListe"><rect codeLine="55" fill="#F1F1F1" height="113.1875" id="VueListe" rx="2.5" ry="2.5" style="stroke:#181818;stroke-width:0.5;" width="418" x="1700" y="254.5"/><ellipse cx="1873.75" cy="270.5" fill="#ADD1B2" rx="11" ry="11" style="stroke:#181818;stroke-width:1.0;"/><path d="M1876.0938,266.1719 C1875.1563,265.7344 1874.5625,265.5938 1873.6875,265.5938 C1871.0625,265.5938 1869.0625,267.6719 1869.0625,270.3906 L1869.0625,271.5156 C1869.0625,274.0938 1871.1719,275.9844 1874.0625,275.9844 C1875.2813,275.9844 1876.4375,275.6875 1877.1875,275.1406 C1877.7656,274.7344 1878.0938,274.2813 1878.0938,273.8906 C1878.0938,273.4375 1877.7031,273.0469 1877.2344,273.0469 C1877.0156,273.0469 1876.8125,273.125 1876.625,273.3125 C1876.1719,273.7969 1876.1719,273.7969 1875.9844,273.8906 C1875.5625,274.1563 1874.875,274.2813 1874.1094,274.2813 C1872.0625,274.2813 1870.7656,273.1875 1870.7656,271.4844 L1870.7656,270.3906 C1870.7656,268.6094 1872.0156,267.2969 1873.75,267.2969 C1874.3281,267.2969 1874.9375,267.4531 1875.4063,267.7031 C1875.8906,267.9844 1876.0625,268.2031 1876.1563,268.6094 C1876.2188,269.0156 1876.25,269.1406 1876.3906,269.2656 C1876.5313,269.4063 1876.7656,269.5156 1876.9844,269.5156 C1877.25,269.5156 1877.5156,269.375 1877.6875,269.1563 C1877.7969,269 1877.8281,268.8125 1877.8281,268.3906 L1877.8281,266.9688 C1877.8281,266.5313 1877.8125,266.4063 1877.7188,266.25 C1877.5625,265.9844 1877.2813,265.8438 1876.9844,265.8438 C1876.6875,265.8438 1876.4844,265.9375 1876.2656,266.25 L1876.0938,266.1719 Z " fill="#000000"/><text fill="#000000" font-family="sans-serif" font-size="14" lengthAdjust="spacing" textLength="62" x="1894.25" y="275.3467">VueListe</text><line style="stroke:#181818;stroke-width:0.5;" x1="1701" x2="2117" y1="286.5" y2="286.5"/><rect fill="none" height="6" style="stroke:#C82930;stroke-width:1.0;" width="6" x="1708" y="297.1484"/><text fill="#000000" font-family="sans-serif" font-size="14" lengthAdjust="spacing" textLength="212" x="1720" y="303.4951">liste: TreeView&lt;Composant&gt;</text><line style="stroke:#181818;stroke-width:0.5;" x1="1701" x2="2117" y1="310.7969" y2="310.7969"/><ellipse cx="1711" cy="324.4453" fill="#84BE84" rx="3" ry="3" style="stroke:#038048;stroke-width:1.0;"/><text fill="#000000" font-family="sans-serif" font-size="14" lengthAdjust="spacing" textLength="72" x="1720" y="327.792">VueListe()</text><ellipse cx="1711" cy="340.7422" fill="#84BE84" rx="3" ry="3" style="stroke:#038048;stroke-width:1.0;"/><text fill="#000000" font-family="sans-serif" font-size="14" lengthAdjust="spacing" textLength="116" x="1720" y="344.0889">actualiser(Sujet)</text><ellipse cx="1711" cy="357.0391" fill="#84BE84" rx="3" ry="3" style="stroke:#038048;stroke-width:1.0;"/><text fill="#000000" font-family="sans-serif" font-size="14" lengthAdjust="spacing" textLength="392" x="1720" y="360.3857">ajoutersoustache(TreeItem&lt;Composant&gt;, TacheMere)</text></g><!--class VueNomTableau--><g id="elem_VueNomTableau"><rect codeLine="63" fill="#F1F1F1" height="80.5938" id="VueNomTableau" rx="2.5" ry="2.5" style="stroke:#181818;stroke-width:0.5;" width="215" x="2153.5" y="270.5"/><ellipse cx="2198.75" cy="286.5" fill="#ADD1B2" rx="11" ry="11" style="stroke:#181818;stroke-width:1.0;"/><path d="M2201.0938,282.1719 C2200.1563,281.7344 2199.5625,281.5938 2198.6875,281.5938 C2196.0625,281.5938 2194.0625,283.6719 2194.0625,286.3906 L2194.0625,287.5156 C2194.0625,290.0938 2196.1719,291.9844 2199.0625,291.9844 C2200.2813,291.9844 2201.4375,291.6875 2202.1875,291.1406 C2202.7656,290.7344 2203.0938,290.2813 2203.0938,289.8906 C2203.0938,289.4375 2202.7031,289.0469 2202.2344,289.0469 C2202.0156,289.0469 2201.8125,289.125 2201.625,289.3125 C2201.1719,289.7969 2201.1719,289.7969 2200.9844,289.8906 C2200.5625,290.1563 2199.875,290.2813 2199.1094,290.2813 C2197.0625,290.2813 2195.7656,289.1875 2195.7656,287.4844 L2195.7656,286.3906 C2195.7656,284.6094 2197.0156,283.2969 2198.75,283.2969 C2199.3281,283.2969 2199.9375,283.4531 2200.4063,283.7031 C2200.8906,283.9844 2201.0625,284.2031 2201.1563,284.6094 C2201.2188,285.0156 2201.25,285.1406 2201.3906,285.2656 C2201.5313,285.4063 2201.7656,285.5156 2201.9844,285.5156 C2202.25,285.5156 2202.5156,285.375 2202.6875,285.1563 C2202.7969,285 2202.8281,284.8125 2202.8281,284.3906 L2202.8281,282.9688 C2202.8281,282.5313 2202.8125,282.4063 2202.7188,282.25 C2202.5625,281.9844 2202.2813,281.8438 2201.9844,281.8438 C2201.6875,281.8438 2201.4844,281.9375 2201.2656,282.25 L2201.0938,282.1719 Z " fill="#000000"/><text fill="#000000" font-family="sans-serif" font-size="14" lengthAdjust="spacing" textLength="116" x="2219.25" y="291.3467">VueNomTableau</text><line style="stroke:#181818;stroke-width:0.5;" x1="2154.5" x2="2367.5" y1="302.5" y2="302.5"/><line style="stroke:#181818;stroke-width:0.5;" x1="2154.5" x2="2367.5" y1="310.5" y2="310.5"/><ellipse cx="2164.5" cy="324.1484" fill="#84BE84" rx="3" ry="3" style="stroke:#038048;stroke-width:1.0;"/><text fill="#000000" font-family="sans-serif" font-size="14" lengthAdjust="spacing" textLength="189" x="2173.5" y="327.4951">VueNomTableau(Systeme)</text><ellipse cx="2164.5" cy="340.4453" fill="#84BE84" rx="3" ry="3" style="stroke:#038048;stroke-width:1.0;"/><text fill="#000000" font-family="sans-serif" font-size="14" lengthAdjust="spacing" textLength="116" x="2173.5" y="343.792">actualiser(Sujet)</text></g><!--class VuePopUpAjouter--><g id="elem_VuePopUpAjouter"><rect codeLine="69" fill="#F1F1F1" height="243.5625" id="VuePopUpAjouter" rx="2.5" ry="2.5" style="stroke:#181818;stroke-width:0.5;" width="971" x="2403.5" y="189"/><ellipse cx="2821.25" cy="205" fill="#ADD1B2" rx="11" ry="11" style="stroke:#181818;stroke-width:1.0;"/><path d="M2823.5938,200.6719 C2822.6563,200.2344 2822.0625,200.0938 2821.1875,200.0938 C2818.5625,200.0938 2816.5625,202.1719 2816.5625,204.8906 L2816.5625,206.0156 C2816.5625,208.5938 2818.6719,210.4844 2821.5625,210.4844 C2822.7813,210.4844 2823.9375,210.1875 2824.6875,209.6406 C2825.2656,209.2344 2825.5938,208.7813 2825.5938,208.3906 C2825.5938,207.9375 2825.2031,207.5469 2824.7344,207.5469 C2824.5156,207.5469 2824.3125,207.625 2824.125,207.8125 C2823.6719,208.2969 2823.6719,208.2969 2823.4844,208.3906 C2823.0625,208.6563 2822.375,208.7813 2821.6094,208.7813 C2819.5625,208.7813 2818.2656,207.6875 2818.2656,205.9844 L2818.2656,204.8906 C2818.2656,203.1094 2819.5156,201.7969 2821.25,201.7969 C2821.8281,201.7969 2822.4375,201.9531 2822.9063,202.2031 C2823.3906,202.4844 2823.5625,202.7031 2823.6563,203.1094 C2823.7188,203.5156 2823.75,203.6406 2823.8906,203.7656 C2824.0313,203.9063 2824.2656,204.0156 2824.4844,204.0156 C2824.75,204.0156 2825.0156,203.875 2825.1875,203.6563 C2825.2969,203.5 2825.3281,203.3125 2825.3281,202.8906 L2825.3281,201.4688 C2825.3281,201.0313 2825.3125,200.9063 2825.2188,200.75 C2825.0625,200.4844 2824.7813,200.3438 2824.4844,200.3438 C2824.1875,200.3438 2823.9844,200.4375 2823.7656,200.75 L2823.5938,200.6719 Z " fill="#000000"/><text fill="#000000" font-family="sans-serif" font-size="14" lengthAdjust="spacing" textLength="127" x="2841.75" y="209.8467">VuePopUpAjouter</text><line style="stroke:#181818;stroke-width:0.5;" x1="2404.5" x2="3373.5" y1="221" y2="221"/><rect fill="none" height="6" style="stroke:#C82930;stroke-width:1.0;" width="6" x="2411.5" y="231.6484"/><text fill="#000000" font-family="sans-serif" font-size="14" lengthAdjust="spacing" textLength="191" x="2423.5" y="237.9951">colonneCourante: Colonne</text><rect fill="none" height="6" style="stroke:#C82930;stroke-width:1.0;" width="6" x="2411.5" y="247.9453"/><text fill="#000000" font-family="sans-serif" font-size="14" lengthAdjust="spacing" textLength="165" x="2423.5" y="254.292">tacheMere: TacheMere</text><rect fill="none" height="6" style="stroke:#C82930;stroke-width:1.0;" width="6" x="2411.5" y="264.2422"/><text fill="#000000" font-family="sans-serif" font-size="14" lengthAdjust="spacing" textLength="81" x="2423.5" y="270.5889">sujet: Sujet</text><line style="stroke:#181818;stroke-width:0.5;" x1="2404.5" x2="3373.5" y1="277.8906" y2="277.8906"/><ellipse cx="2414.5" cy="291.5391" fill="#84BE84" rx="3" ry="3" style="stroke:#038048;stroke-width:1.0;"/><text fill="#000000" font-family="sans-serif" font-size="14" lengthAdjust="spacing" textLength="351" x="2423.5" y="294.8857">VuePopUpAjouter(sujet: Sujet, colonne: Colonne)</text><ellipse cx="2414.5" cy="307.8359" fill="#84BE84" rx="3" ry="3" style="stroke:#038048;stroke-width:1.0;"/><text fill="#000000" font-family="sans-serif" font-size="14" lengthAdjust="spacing" textLength="199" x="2423.5" y="311.1826">actualiser(sujet: Sujet): void</text><ellipse cx="2414.5" cy="324.1328" fill="#84BE84" rx="3" ry="3" style="stroke:#038048;stroke-width:1.0;"/><text fill="#000000" font-family="sans-serif" font-size="14" lengthAdjust="spacing" textLength="476" x="2423.5" y="327.4795">creerFormSousTache(vbox: VBox, rangTache: int, marge: int): void</text><ellipse cx="2414.5" cy="340.4297" fill="#84BE84" rx="3" ry="3" style="stroke:#038048;stroke-width:1.0;"/><text fill="#000000" font-family="sans-serif" font-size="14" lengthAdjust="spacing" textLength="506" x="2423.5" y="343.7764">ajouterSousTachesRecursive(tacheMere: TacheMere, vbox: VBox): void</text><ellipse cx="2414.5" cy="356.7266" fill="#84BE84" rx="3" ry="3" style="stroke:#038048;stroke-width:1.0;"/><text fill="#000000" font-family="sans-serif" font-size="14" lengthAdjust="spacing" textLength="645" x="2423.5" y="360.0732">validerChamps(nom: String, duree: String, selectedDate: LocalDate, vbox: VBox): boolean</text><ellipse cx="2414.5" cy="373.0234" fill="#84BE84" rx="3" ry="3" style="stroke:#038048;stroke-width:1.0;"/><text fill="#000000" font-family="sans-serif" font-size="14" lengthAdjust="spacing" textLength="890" x="2423.5" y="376.3701">validerChampsSousTache(nomTextField: TextField, dureeTextField: TextField, datePicker: DatePicker, vbox: VBox): boolean</text><ellipse cx="2414.5" cy="389.3203" fill="#84BE84" rx="3" ry="3" style="stroke:#038048;stroke-width:1.0;"/><text fill="#000000" font-family="sans-serif" font-size="14" lengthAdjust="spacing" textLength="347" x="2423.5" y="392.667">validerChampsSousTaches(vbox: VBox): boolean</text><ellipse cx="2414.5" cy="405.6172" fill="#84BE84" rx="3" ry="3" style="stroke:#038048;stroke-width:1.0;"/><text fill="#000000" font-family="sans-serif" font-size="14" lengthAdjust="spacing" textLength="945" x="2423.5" y="408.9639">validerChampsTacheEtSousTaches(nom: String, duree: String, selectedDate: LocalDate, vbox: VBox, vboxcontainer: VBox): boolean</text><ellipse cx="2414.5" cy="421.9141" fill="#84BE84" rx="3" ry="3" style="stroke:#038048;stroke-width:1.0;"/><text fill="#000000" font-family="sans-serif" font-size="14" lengthAdjust="spacing" textLength="338" x="2423.5" y="425.2607">validerTimingSousTaches(vbox: VBox): boolean</text></g><!--class VuePopUpAjouterColonne--><g id="elem_VuePopUpAjouterColonne"><rect codeLine="84" fill="#F1F1F1" height="96.8906" id="VuePopUpAjouterColonne" rx="2.5" ry="2.5" style="stroke:#181818;stroke-width:0.5;" width="303" x="3409.5" y="262.5"/><ellipse cx="3463.75" cy="278.5" fill="#ADD1B2" rx="11" ry="11" style="stroke:#181818;stroke-width:1.0;"/><path d="M3466.0938,274.1719 C3465.1563,273.7344 3464.5625,273.5938 3463.6875,273.5938 C3461.0625,273.5938 3459.0625,275.6719 3459.0625,278.3906 L3459.0625,279.5156 C3459.0625,282.0938 3461.1719,283.9844 3464.0625,283.9844 C3465.2813,283.9844 3466.4375,283.6875 3467.1875,283.1406 C3467.7656,282.7344 3468.0938,282.2813 3468.0938,281.8906 C3468.0938,281.4375 3467.7031,281.0469 3467.2344,281.0469 C3467.0156,281.0469 3466.8125,281.125 3466.625,281.3125 C3466.1719,281.7969 3466.1719,281.7969 3465.9844,281.8906 C3465.5625,282.1563 3464.875,282.2813 3464.1094,282.2813 C3462.0625,282.2813 3460.7656,281.1875 3460.7656,279.4844 L3460.7656,278.3906 C3460.7656,276.6094 3462.0156,275.2969 3463.75,275.2969 C3464.3281,275.2969 3464.9375,275.4531 3465.4063,275.7031 C3465.8906,275.9844 3466.0625,276.2031 3466.1563,276.6094 C3466.2188,277.0156 3466.25,277.1406 3466.3906,277.2656 C3466.5313,277.4063 3466.7656,277.5156 3466.9844,277.5156 C3467.25,277.5156 3467.5156,277.375 3467.6875,277.1563 C3467.7969,277 3467.8281,276.8125 3467.8281,276.3906 L3467.8281,274.9688 C3467.8281,274.5313 3467.8125,274.4063 3467.7188,274.25 C3467.5625,273.9844 3467.2813,273.8438 3466.9844,273.8438 C3466.6875,273.8438 3466.4844,273.9375 3466.2656,274.25 L3466.0938,274.1719 Z " fill="#000000"/><text fill="#000000" font-family="sans-serif" font-size="14" lengthAdjust="spacing" textLength="186" x="3484.25" y="283.3467">VuePopUpAjouterColonne</text><line style="stroke:#181818;stroke-width:0.5;" x1="3410.5" x2="3711.5" y1="294.5" y2="294.5"/><rect fill="none" height="6" style="stroke:#C82930;stroke-width:1.0;" width="6" x="3417.5" y="305.1484"/><text fill="#000000" font-family="sans-serif" font-size="14" lengthAdjust="spacing" textLength="119" x="3429.5" y="311.4951">tableau: Tableau</text><line style="stroke:#181818;stroke-width:0.5;" x1="3410.5" x2="3711.5" y1="318.7969" y2="318.7969"/><ellipse cx="3420.5" cy="332.4453" fill="#84BE84" rx="3" ry="3" style="stroke:#038048;stroke-width:1.0;"/><text fill="#000000" font-family="sans-serif" font-size="14" lengthAdjust="spacing" textLength="277" x="3429.5" y="335.792">VuePopUpAjouterColonne(sujet: Sujet)</text><ellipse cx="3420.5" cy="348.7422" fill="#84BE84" rx="3" ry="3" style="stroke:#038048;stroke-width:1.0;"/><text fill="#000000" font-family="sans-serif" font-size="14" lengthAdjust="spacing" textLength="199" x="3429.5" y="352.0889">actualiser(sujet: Sujet): void</text></g><!--class VuePopUpAjouterTableau--><g id="elem_VuePopUpAjouterTableau"><rect codeLine="90" fill="#F1F1F1" height="96.8906" id="VuePopUpAjouterTableau" rx="2.5" ry="2.5" style="stroke:#181818;stroke-width:0.5;" width="300" x="3748" y="262.5"/><ellipse cx="3802.25" cy="278.5" fill="#ADD1B2" rx="11" ry="11" style="stroke:#181818;stroke-width:1.0;"/><path d="M3804.5938,274.1719 C3803.6563,273.7344 3803.0625,273.5938 3802.1875,273.5938 C3799.5625,273.5938 3797.5625,275.6719 3797.5625,278.3906 L3797.5625,279.5156 C3797.5625,282.0938 3799.6719,283.9844 3802.5625,283.9844 C3803.7813,283.9844 3804.9375,283.6875 3805.6875,283.1406 C3806.2656,282.7344 3806.5938,282.2813 3806.5938,281.8906 C3806.5938,281.4375 3806.2031,281.0469 3805.7344,281.0469 C3805.5156,281.0469 3805.3125,281.125 3805.125,281.3125 C3804.6719,281.7969 3804.6719,281.7969 3804.4844,281.8906 C3804.0625,282.1563 3803.375,282.2813 3802.6094,282.2813 C3800.5625,282.2813 3799.2656,281.1875 3799.2656,279.4844 L3799.2656,278.3906 C3799.2656,276.6094 3800.5156,275.2969 3802.25,275.2969 C3802.8281,275.2969 3803.4375,275.4531 3803.9063,275.7031 C3804.3906,275.9844 3804.5625,276.2031 3804.6563,276.6094 C3804.7188,277.0156 3804.75,277.1406 3804.8906,277.2656 C3805.0313,277.4063 3805.2656,277.5156 3805.4844,277.5156 C3805.75,277.5156 3806.0156,277.375 3806.1875,277.1563 C3806.2969,277 3806.3281,276.8125 3806.3281,276.3906 L3806.3281,274.9688 C3806.3281,274.5313 3806.3125,274.4063 3806.2188,274.25 C3806.0625,273.9844 3805.7813,273.8438 3805.4844,273.8438 C3805.1875,273.8438 3804.9844,273.9375 3804.7656,274.25 L3804.5938,274.1719 Z " fill="#000000"/><text fill="#000000" font-family="sans-serif" font-size="14" lengthAdjust="spacing" textLength="183" x="3822.75" y="283.3467">VuePopUpAjouterTableau</text><line style="stroke:#181818;stroke-width:0.5;" x1="3749" x2="4047" y1="294.5" y2="294.5"/><rect fill="none" height="6" style="stroke:#C82930;stroke-width:1.0;" width="6" x="3756" y="305.1484"/><text fill="#000000" font-family="sans-serif" font-size="14" lengthAdjust="spacing" textLength="133" x="3768" y="311.4951">systeme: Systeme</text><line style="stroke:#181818;stroke-width:0.5;" x1="3749" x2="4047" y1="318.7969" y2="318.7969"/><ellipse cx="3759" cy="332.4453" fill="#84BE84" rx="3" ry="3" style="stroke:#038048;stroke-width:1.0;"/><text fill="#000000" font-family="sans-serif" font-size="14" lengthAdjust="spacing" textLength="274" x="3768" y="335.792">VuePopUpAjouterTableau(sujet: Sujet)</text><ellipse cx="3759" cy="348.7422" fill="#84BE84" rx="3" ry="3" style="stroke:#038048;stroke-width:1.0;"/><text fill="#000000" font-family="sans-serif" font-size="14" lengthAdjust="spacing" textLength="199" x="3768" y="352.0889">actualiser(sujet: Sujet): void</text></g><!--class VuePopUpModifier--><g id="elem_VuePopUpModifier"><rect codeLine="96" fill="#F1F1F1" height="162.0781" id="VuePopUpModifier" rx="2.5" ry="2.5" style="stroke:#181818;stroke-width:0.5;" width="601" x="4083.5" y="230"/><ellipse cx="4313.25" cy="246" fill="#ADD1B2" rx="11" ry="11" style="stroke:#181818;stroke-width:1.0;"/><path d="M4315.5938,241.6719 C4314.6563,241.2344 4314.0625,241.0938 4313.1875,241.0938 C4310.5625,241.0938 4308.5625,243.1719 4308.5625,245.8906 L4308.5625,247.0156 C4308.5625,249.5938 4310.6719,251.4844 4313.5625,251.4844 C4314.7813,251.4844 4315.9375,251.1875 4316.6875,250.6406 C4317.2656,250.2344 4317.5938,249.7813 4317.5938,249.3906 C4317.5938,248.9375 4317.2031,248.5469 4316.7344,248.5469 C4316.5156,248.5469 4316.3125,248.625 4316.125,248.8125 C4315.6719,249.2969 4315.6719,249.2969 4315.4844,249.3906 C4315.0625,249.6563 4314.375,249.7813 4313.6094,249.7813 C4311.5625,249.7813 4310.2656,248.6875 4310.2656,246.9844 L4310.2656,245.8906 C4310.2656,244.1094 4311.5156,242.7969 4313.25,242.7969 C4313.8281,242.7969 4314.4375,242.9531 4314.9063,243.2031 C4315.3906,243.4844 4315.5625,243.7031 4315.6563,244.1094 C4315.7188,244.5156 4315.75,244.6406 4315.8906,244.7656 C4316.0313,244.9063 4316.2656,245.0156 4316.4844,245.0156 C4316.75,245.0156 4317.0156,244.875 4317.1875,244.6563 C4317.2969,244.5 4317.3281,244.3125 4317.3281,243.8906 L4317.3281,242.4688 C4317.3281,242.0313 4317.3125,241.9063 4317.2188,241.75 C4317.0625,241.4844 4316.7813,241.3438 4316.4844,241.3438 C4316.1875,241.3438 4315.9844,241.4375 4315.7656,241.75 L4315.5938,241.6719 Z " fill="#000000"/><text fill="#000000" font-family="sans-serif" font-size="14" lengthAdjust="spacing" textLength="133" x="4333.75" y="250.8467">VuePopUpModifier</text><line style="stroke:#181818;stroke-width:0.5;" x1="4084.5" x2="4683.5" y1="262" y2="262"/><rect fill="none" height="6" style="stroke:#C82930;stroke-width:1.0;" width="6" x="4091.5" y="272.6484"/><text fill="#000000" font-family="sans-serif" font-size="14" lengthAdjust="spacing" textLength="93" x="4103.5" y="278.9951">tache: Tache</text><rect fill="none" height="6" style="stroke:#C82930;stroke-width:1.0;" width="6" x="4091.5" y="288.9453"/><text fill="#000000" font-family="sans-serif" font-size="14" lengthAdjust="spacing" textLength="119" x="4103.5" y="295.292">tableau: Tableau</text><line style="stroke:#181818;stroke-width:0.5;" x1="4084.5" x2="4683.5" y1="302.5938" y2="302.5938"/><ellipse cx="4094.5" cy="316.2422" fill="#84BE84" rx="3" ry="3" style="stroke:#038048;stroke-width:1.0;"/><text fill="#000000" font-family="sans-serif" font-size="14" lengthAdjust="spacing" textLength="325" x="4103.5" y="319.5889">VuePopUpModifier(sujet: Sujet, tache: Tache)</text><ellipse cx="4094.5" cy="332.5391" fill="#84BE84" rx="3" ry="3" style="stroke:#038048;stroke-width:1.0;"/><text fill="#000000" font-family="sans-serif" font-size="14" lengthAdjust="spacing" textLength="199" x="4103.5" y="335.8857">actualiser(sujet: Sujet): void</text><rect fill="#F24D5C" height="6" style="stroke:#C82930;stroke-width:1.0;" width="6" x="4091.5" y="345.8359"/><text fill="#000000" font-family="sans-serif" font-size="14" lengthAdjust="spacing" textLength="575" x="4103.5" y="352.1826">displaySubtasks(tache: Tache, container: VBox, rangTache: int, marge: int): void</text><rect fill="#F24D5C" height="6" style="stroke:#C82930;stroke-width:1.0;" width="6" x="4091.5" y="362.1328"/><text fill="#000000" font-family="sans-serif" font-size="14" lengthAdjust="spacing" textLength="481" x="4103.5" y="368.4795">majSousTachesRecursive(tacheMere: TacheMere, vbox: VBox): void</text><ellipse cx="4094.5" cy="381.4297" fill="#84BE84" rx="3" ry="3" style="stroke:#038048;stroke-width:1.0;"/><text fill="#000000" font-family="sans-serif" font-size="14" lengthAdjust="spacing" textLength="476" x="4103.5" y="384.7764">creerFormSousTache(vbox: VBox, rangTache: int, marge: int): void</text></g><!--class VuePopUpModifierColonne--><g id="elem_VuePopUpModifierColonne"><rect codeLine="106" fill="#F1F1F1" height="113.1875" id="VuePopUpModifierColonne" rx="2.5" ry="2.5" style="stroke:#181818;stroke-width:0.5;" width="442" x="4720" y="254.5"/><ellipse cx="4840.75" cy="270.5" fill="#ADD1B2" rx="11" ry="11" style="stroke:#181818;stroke-width:1.0;"/><path d="M4843.0938,266.1719 C4842.1563,265.7344 4841.5625,265.5938 4840.6875,265.5938 C4838.0625,265.5938 4836.0625,267.6719 4836.0625,270.3906 L4836.0625,271.5156 C4836.0625,274.0938 4838.1719,275.9844 4841.0625,275.9844 C4842.2813,275.9844 4843.4375,275.6875 4844.1875,275.1406 C4844.7656,274.7344 4845.0938,274.2813 4845.0938,273.8906 C4845.0938,273.4375 4844.7031,273.0469 4844.2344,273.0469 C4844.0156,273.0469 4843.8125,273.125 4843.625,273.3125 C4843.1719,273.7969 4843.1719,273.7969 4842.9844,273.8906 C4842.5625,274.1563 4841.875,274.2813 4841.1094,274.2813 C4839.0625,274.2813 4837.7656,273.1875 4837.7656,271.4844 L4837.7656,270.3906 C4837.7656,268.6094 4839.0156,267.2969 4840.75,267.2969 C4841.3281,267.2969 4841.9375,267.4531 4842.4063,267.7031 C4842.8906,267.9844 4843.0625,268.2031 4843.1563,268.6094 C4843.2188,269.0156 4843.25,269.1406 4843.3906,269.2656 C4843.5313,269.4063 4843.7656,269.5156 4843.9844,269.5156 C4844.25,269.5156 4844.5156,269.375 4844.6875,269.1563 C4844.7969,269 4844.8281,268.8125 4844.8281,268.3906 L4844.8281,266.9688 C4844.8281,266.5313 4844.8125,266.4063 4844.7188,266.25 C4844.5625,265.9844 4844.2813,265.8438 4843.9844,265.8438 C4843.6875,265.8438 4843.4844,265.9375 4843.2656,266.25 L4843.0938,266.1719 Z " fill="#000000"/><text fill="#000000" font-family="sans-serif" font-size="14" lengthAdjust="spacing" textLength="192" x="4861.25" y="275.3467">VuePopUpModifierColonne</text><line style="stroke:#181818;stroke-width:0.5;" x1="4721" x2="5161" y1="286.5" y2="286.5"/><rect fill="none" height="6" style="stroke:#C82930;stroke-width:1.0;" width="6" x="4728" y="297.1484"/><text fill="#000000" font-family="sans-serif" font-size="14" lengthAdjust="spacing" textLength="125" x="4740" y="303.4951">colonne: Colonne</text><rect fill="none" height="6" style="stroke:#C82930;stroke-width:1.0;" width="6" x="4728" y="313.4453"/><text fill="#000000" font-family="sans-serif" font-size="14" lengthAdjust="spacing" textLength="119" x="4740" y="319.792">tableau: Tableau</text><line style="stroke:#181818;stroke-width:0.5;" x1="4721" x2="5161" y1="327.0938" y2="327.0938"/><ellipse cx="4731" cy="340.7422" fill="#84BE84" rx="3" ry="3" style="stroke:#038048;stroke-width:1.0;"/><text fill="#000000" font-family="sans-serif" font-size="14" lengthAdjust="spacing" textLength="416" x="4740" y="344.0889">VuePopUpModifierColonne(sujet: Sujet, colonne: Colonne)</text><ellipse cx="4731" cy="357.0391" fill="#84BE84" rx="3" ry="3" style="stroke:#038048;stroke-width:1.0;"/><text fill="#000000" font-family="sans-serif" font-size="14" lengthAdjust="spacing" textLength="199" x="4740" y="360.3857">actualiser(sujet: Sujet): void</text></g><!--class VuePopUpModifierTableau--><g id="elem_VuePopUpModifierTableau"><rect codeLine="113" fill="#F1F1F1" height="113.1875" id="VuePopUpModifierTableau" rx="2.5" ry="2.5" style="stroke:#181818;stroke-width:0.5;" width="433" x="5197.5" y="254.5"/><ellipse cx="5315.25" cy="270.5" fill="#ADD1B2" rx="11" ry="11" style="stroke:#181818;stroke-width:1.0;"/><path d="M5317.5938,266.1719 C5316.6563,265.7344 5316.0625,265.5938 5315.1875,265.5938 C5312.5625,265.5938 5310.5625,267.6719 5310.5625,270.3906 L5310.5625,271.5156 C5310.5625,274.0938 5312.6719,275.9844 5315.5625,275.9844 C5316.7813,275.9844 5317.9375,275.6875 5318.6875,275.1406 C5319.2656,274.7344 5319.5938,274.2813 5319.5938,273.8906 C5319.5938,273.4375 5319.2031,273.0469 5318.7344,273.0469 C5318.5156,273.0469 5318.3125,273.125 5318.125,273.3125 C5317.6719,273.7969 5317.6719,273.7969 5317.4844,273.8906 C5317.0625,274.1563 5316.375,274.2813 5315.6094,274.2813 C5313.5625,274.2813 5312.2656,273.1875 5312.2656,271.4844 L5312.2656,270.3906 C5312.2656,268.6094 5313.5156,267.2969 5315.25,267.2969 C5315.8281,267.2969 5316.4375,267.4531 5316.9063,267.7031 C5317.3906,267.9844 5317.5625,268.2031 5317.6563,268.6094 C5317.7188,269.0156 5317.75,269.1406 5317.8906,269.2656 C5318.0313,269.4063 5318.2656,269.5156 5318.4844,269.5156 C5318.75,269.5156 5319.0156,269.375 5319.1875,269.1563 C5319.2969,269 5319.3281,268.8125 5319.3281,268.3906 L5319.3281,266.9688 C5319.3281,266.5313 5319.3125,266.4063 5319.2188,266.25 C5319.0625,265.9844 5318.7813,265.8438 5318.4844,265.8438 C5318.1875,265.8438 5317.9844,265.9375 5317.7656,266.25 L5317.5938,266.1719 Z " fill="#000000"/><text fill="#000000" font-family="sans-serif" font-size="14" lengthAdjust="spacing" textLength="189" x="5335.75" y="275.3467">VuePopUpModifierTableau</text><line style="stroke:#181818;stroke-width:0.5;" x1="5198.5" x2="5629.5" y1="286.5" y2="286.5"/><rect fill="none" height="6" style="stroke:#C82930;stroke-width:1.0;" width="6" x="5205.5" y="297.1484"/><text fill="#000000" font-family="sans-serif" font-size="14" lengthAdjust="spacing" textLength="133" x="5217.5" y="303.4951">systeme: Systeme</text><rect fill="none" height="6" style="stroke:#C82930;stroke-width:1.0;" width="6" x="5205.5" y="313.4453"/><text fill="#000000" font-family="sans-serif" font-size="14" lengthAdjust="spacing" textLength="119" x="5217.5" y="319.792">tableau: Tableau</text><line style="stroke:#181818;stroke-width:0.5;" x1="5198.5" x2="5629.5" y1="327.0938" y2="327.0938"/><ellipse cx="5208.5" cy="340.7422" fill="#84BE84" rx="3" ry="3" style="stroke:#038048;stroke-width:1.0;"/><text fill="#000000" font-family="sans-serif" font-size="14" lengthAdjust="spacing" textLength="407" x="5217.5" y="344.0889">VuePopUpModifierTableau(sujet: Sujet, tableau: Tableau)</text><ellipse cx="5208.5" cy="357.0391" fill="#84BE84" rx="3" ry="3" style="stroke:#038048;stroke-width:1.0;"/><text fill="#000000" font-family="sans-serif" font-size="14" lengthAdjust="spacing" textLength="199" x="5217.5" y="360.3857">actualiser(sujet: Sujet): void</text></g><!--class VueSysteme--><g id="elem_VueSysteme"><rect codeLine="120" fill="#F1F1F1" height="64.2969" id="VueSysteme" rx="2.5" ry="2.5" style="stroke:#181818;stroke-width:0.5;" width="225" x="5665.5" y="279"/><ellipse cx="5728.75" cy="295" fill="#ADD1B2" rx="11" ry="11" style="stroke:#181818;stroke-width:1.0;"/><path d="M5731.0938,290.6719 C5730.1563,290.2344 5729.5625,290.0938 5728.6875,290.0938 C5726.0625,290.0938 5724.0625,292.1719 5724.0625,294.8906 L5724.0625,296.0156 C5724.0625,298.5938 5726.1719,300.4844 5729.0625,300.4844 C5730.2813,300.4844 5731.4375,300.1875 5732.1875,299.6406 C5732.7656,299.2344 5733.0938,298.7813 5733.0938,298.3906 C5733.0938,297.9375 5732.7031,297.5469 5732.2344,297.5469 C5732.0156,297.5469 5731.8125,297.625 5731.625,297.8125 C5731.1719,298.2969 5731.1719,298.2969 5730.9844,298.3906 C5730.5625,298.6563 5729.875,298.7813 5729.1094,298.7813 C5727.0625,298.7813 5725.7656,297.6875 5725.7656,295.9844 L5725.7656,294.8906 C5725.7656,293.1094 5727.0156,291.7969 5728.75,291.7969 C5729.3281,291.7969 5729.9375,291.9531 5730.4063,292.2031 C5730.8906,292.4844 5731.0625,292.7031 5731.1563,293.1094 C5731.2188,293.5156 5731.25,293.6406 5731.3906,293.7656 C5731.5313,293.9063 5731.7656,294.0156 5731.9844,294.0156 C5732.25,294.0156 5732.5156,293.875 5732.6875,293.6563 C5732.7969,293.5 5732.8281,293.3125 5732.8281,292.8906 L5732.8281,291.4688 C5732.8281,291.0313 5732.8125,290.9063 5732.7188,290.75 C5732.5625,290.4844 5732.2813,290.3438 5731.9844,290.3438 C5731.6875,290.3438 5731.4844,290.4375 5731.2656,290.75 L5731.0938,290.6719 Z " fill="#000000"/><text fill="#000000" font-family="sans-serif" font-size="14" lengthAdjust="spacing" textLength="90" x="5749.25" y="299.8467">VueSysteme</text><line style="stroke:#181818;stroke-width:0.5;" x1="5666.5" x2="5889.5" y1="311" y2="311"/><line style="stroke:#181818;stroke-width:0.5;" x1="5666.5" x2="5889.5" y1="319" y2="319"/><ellipse cx="5676.5" cy="332.6484" fill="#84BE84" rx="3" ry="3" style="stroke:#038048;stroke-width:1.0;"/><text fill="#000000" font-family="sans-serif" font-size="14" lengthAdjust="spacing" textLength="199" x="5685.5" y="335.9951">actualiser(sujet: Sujet): void</text></g><!--reverse link Observateur to Vue--><g id="link_Observateur_Vue"><path d="M2799.7114,75.0873 C2390.7514,80.2283 374.792,108.352 256,165 C235.831,174.618 217.589,189.133 201.646,205.324 " fill="none" id="Observateur-backto-Vue" style="stroke:#181818;stroke-width:1.0;stroke-dasharray:7.0,7.0;"/><polygon fill="none" points="2817.71,74.861,2799.636,69.0877,2799.7868,81.0868,2817.71,74.861" style="stroke:#181818;stroke-width:1.0;"/></g><!--reverse link Observateur to VueArchive--><g id="link_Observateur_VueArchive"><path d="M2799.8215,75.0884 C2448.7715,79.6014 928.632,102.581 725,165 C659.227,185.161 593.352,228.281 548.155,262.285 " fill="none" id="Observateur-backto-VueArchive" style="stroke:#181818;stroke-width:1.0;stroke-dasharray:7.0,7.0;"/><polygon fill="none" points="2817.82,74.857,2799.7444,69.0889,2799.8986,81.0879,2817.82,74.857" style="stroke:#181818;stroke-width:1.0;"/></g><!--reverse link Observateur to VueBureau--><g id="link_Observateur_VueBureau"><path d="M2799.8158,76.2041 C2498.0158,83.8871 1350.49,116.037 1194,165 C1143.56,180.783 1092.98,209.865 1051.73,237.864 " fill="none" id="Observateur-backto-VueBureau" style="stroke:#181818;stroke-width:1.0;stroke-dasharray:7.0,7.0;"/><polygon fill="none" points="2817.81,75.746,2799.6631,70.206,2799.9685,82.2021,2817.81,75.746" style="stroke:#181818;stroke-width:1.0;"/></g><!--reverse link Observateur to VueGantt--><g id="link_Observateur_VueGantt"><path d="M2800.0032,75.4678 C2574.8032,79.7078 1896.81,97.722 1683,165 C1677.11,166.854 1671.2,168.873 1665.31,171.037 " fill="none" id="Observateur-backto-VueGantt" style="stroke:#181818;stroke-width:1.0;stroke-dasharray:7.0,7.0;"/><polygon fill="none" points="2818,75.129,2799.8902,69.4689,2800.1161,81.4668,2818,75.129" style="stroke:#181818;stroke-width:1.0;"/></g><!--reverse link Observateur to VueListe--><g id="link_Observateur_VueListe"><path d="M2799.8614,79.7674 C2637.2414,90.8094 2260.8,120.241 2136,165 C2078.56,185.602 2020.69,222.879 1977.76,254.477 " fill="none" id="Observateur-backto-VueListe" style="stroke:#181818;stroke-width:1.0;stroke-dasharray:7.0,7.0;"/><polygon fill="none" points="2817.82,78.548,2799.4549,73.7812,2800.2678,85.7536,2817.82,78.548" style="stroke:#181818;stroke-width:1.0;"/></g><!--reverse link Observateur to VueNomTableau--><g id="link_Observateur_VueNomTableau"><path d="M2799.7803,82.8852 C2679.1103,95.6752 2458.62,123.501 2386,165 C2341.99,190.148 2306.06,236.789 2284.2,270.393 " fill="none" id="Observateur-backto-VueNomTableau" style="stroke:#181818;stroke-width:1.0;stroke-dasharray:7.0,7.0;"/><polygon fill="none" points="2817.68,80.988,2799.1479,76.9186,2800.4127,88.8518,2817.68,80.988" style="stroke:#181818;stroke-width:1.0;"/></g><!--reverse link Observateur to VuePopUpAjouter--><g id="link_Observateur_VuePopUpAjouter"><path d="M2889,123.339 C2889,145.218 2889,157.957 2889,188.975 " fill="none" id="Observateur-backto-VuePopUpAjouter" style="stroke:#181818;stroke-width:1.0;stroke-dasharray:7.0,7.0;"/><polygon fill="none" points="2889,105.339,2883,123.339,2895,123.339,2889,105.339" style="stroke:#181818;stroke-width:1.0;"/></g><!--reverse link Observateur to VuePopUpAjouterColonne--><g id="link_Observateur_VuePopUpAjouterColonne"><path d="M2978.0437,76.0264 C3078.8237,80.3214 3248.95,96.948 3392,165 C3441.05,188.334 3487.16,229.731 3518.79,262.336 " fill="none" id="Observateur-backto-VuePopUpAjouterColonne" style="stroke:#181818;stroke-width:1.0;stroke-dasharray:7.0,7.0;"/><polygon fill="none" points="2960.06,75.26,2977.7882,82.021,2978.2991,70.0319,2960.06,75.26" style="stroke:#181818;stroke-width:1.0;"/></g><!--reverse link Observateur to VuePopUpAjouterTableau--><g id="link_Observateur_VuePopUpAjouterTableau"><path d="M2978.0278,76.9406 C3154.7978,83.4616 3592.11,105.082 3730,165 C3780.18,186.804 3826.38,229.032 3857.58,262.318 " fill="none" id="Observateur-backto-VuePopUpAjouterTableau" style="stroke:#181818;stroke-width:1.0;stroke-dasharray:7.0,7.0;"/><polygon fill="none" points="2960.04,76.277,2977.8066,82.9365,2978.249,70.9446,2960.04,76.277" style="stroke:#181818;stroke-width:1.0;"/></g><!--reverse link Observateur to VuePopUpModifier--><g id="link_Observateur_VuePopUpModifier"><path d="M2978.3497,76.8601 C3199.7597,84.3571 3854.9,110.537 4066,165 C4123.87,179.93 4184.29,204.838 4236.72,229.834 " fill="none" id="Observateur-backto-VuePopUpModifier" style="stroke:#181818;stroke-width:1.0;stroke-dasharray:7.0,7.0;"/><polygon fill="none" points="2960.36,76.251,2978.1466,82.8567,2978.5527,70.8636,2960.36,76.251" style="stroke:#181818;stroke-width:1.0;"/></g><!--reverse link Observateur to VuePopUpModifierColonne--><g id="link_Observateur_VuePopUpModifierColonne"><path d="M2978.0356,75.9035 C3292.5556,82.8515 4533.47,113.284 4702,165 C4763.48,183.865 4825.34,222.045 4870.72,254.493 " fill="none" id="Observateur-backto-VuePopUpModifierColonne" style="stroke:#181818;stroke-width:1.0;stroke-dasharray:7.0,7.0;"/><polygon fill="none" points="2960.04,75.506,2977.9031,81.9021,2978.1681,69.905,2960.04,75.506" style="stroke:#181818;stroke-width:1.0;"/></g><!--reverse link Observateur to VuePopUpModifierTableau--><g id="link_Observateur_VuePopUpModifierTableau"><path d="M2978.1091,74.8539 C3341.4091,78.5659 4963.59,98.715 5180,165 C5240.66,183.581 5301.33,221.882 5345.69,254.454 " fill="none" id="Observateur-backto-VuePopUpModifierTableau" style="stroke:#181818;stroke-width:1.0;stroke-dasharray:7.0,7.0;"/><polygon fill="none" points="2960.11,74.67,2978.0478,80.8536,2978.1704,68.8542,2960.11,74.67" style="stroke:#181818;stroke-width:1.0;"/></g><!--reverse link Observateur to VueSysteme--><g id="link_Observateur_VueSysteme"><path d="M2978.2288,74.9755 C3398.5388,79.7275 5522.69,106.551 5648,165 C5699.48,189.01 5739.38,243.953 5760.72,278.889 " fill="none" id="Observateur-backto-VueSysteme" style="stroke:#181818;stroke-width:1.0;stroke-dasharray:7.0,7.0;"/><polygon fill="none" points="2960.23,74.772,2978.161,80.9751,2978.2967,68.9759,2960.23,74.772" style="stroke:#181818;stroke-width:1.0;"/></g><!--SRC=[pLTjJ-Cu4FxUN-6FgJRyWGWX5ShIwXQskcOvxPrEApUPRGs97TbE0Ptslz_u9ObRahR0VJW-j6R6C_FCssEeQFP8rq2oWYe5Ylmp6Z6kGVwa6P2lAmLoIpNK4XK4VpuHckcQ5WmLqR9-03qU_HgDh3Mvhu6miYgW1AvLZ_KPsTPmMKkWTM9kksEd-iAK1gknfqvnGxdMLc5FdM8YimtREXj_zifCr1Bl9Y4Chr86TqAMBnYZX95F33r4NZJsecn3-HgarMZ9-BfHh45VEV_H-7M4OqNoG0_Ngi-9WqyVH8qTkiHFmQFPfNYEoPNWMee2pVTkAL4hJRCDHAdvl0K9CKdfgi328_I9bFJ55FlS-BdOWUcwG_wFC7sB4P-6HO6ZkX553l9A589puyCQnbqMwECUBOSCKn_wi1dDyy16-MWgQgzta7SAQMVss6RyCP-ciuJWydd1x7f-Cqj3oVBRPJfP_lPZCPbEvtSteMew-VvZEV_pEfJTVhrBPw-asY5C6gYjM3qkX6AQ2QuISakhyw0JKr7ZvR_-lcYMPLMp8hTvHSrEv81zB1d7bbC5KymkwclW5v7HmcWlcYMppKXPYKkFlMlriG4TDg2zYb3TcCGajy1Y4bYPjaYqMr0EpOZckJ6Qy7nPhqocwe2zY-eKJMgIFc46uiaYR6o6latWSM0vXGfu3ZnZE2lZanZ2qj-nYIaSMwOIu9x1q_cLA2kXi2SN0QLPJmUYUlchBKIdSwJ2mAaPRZyGks3lHEaRFOou0zJTtcVRmoLPYEfRDN4uZrKcSvlfAHfhv5UrdNMVHzAbjFSqcAyESnWx2g_4JQWsH4yoeG5ErbQml9jda9-5B9TOUCT1svLuTZCV4mI_jbAxlp4fgLoxywuRtxtMYVeTibegV6AYlbHZqWNPTRH5n8P6DxIiLCH5YQZjkuV3ZGG7tQyA2iWqv6Pbad1xTbol178zvNtUkumnJ0hF-ZE38aUKpT67750P-cRP8yY4JDlpEwAhw5GJU_rQ1vOVh8yxP_WYKaEQXp4WFQBVOx27ziNFvh6rwNqQFWqusnthqwP-2DzH-l3BwVYY-ykj5r_3Bly5lbkHiv_iEE5ejwMsDwSLi_6yHoUXepTGoHd9cQeA-jA-Rw4Zmr8xKtOgjPoX_E7ZjF9XcXliouc3lK_IRsjHty2_c_W7K_d83foSIjzknA-Ctv6AH_E6_nK6F8v-_Gi0]--></g></svg>