<?xml version="1.0" encoding="us-ascii" standalone="no"?><svg xmlns="http://www.w3.org/2000/svg" xmlns:xlink="http://www.w3.org/1999/xlink" contentStyleType="text/css" height="442px" preserveAspectRatio="none" style="width:5277px;height:442px;background:#FFFFFF;" version="1.1" viewBox="0 0 5277 442" width="5277px" zoomAndPan="magnify"><defs/><g><!--cluster classes--><g id="cluster_classes"><path d="M8.5,6 L69.5,6 A3.75,3.75 0 0 1 72,8.5 L79,28.2969 L5267.5,28.2969 A2.5,2.5 0 0 1 5270,30.7969 L5270,432.5 A2.5,2.5 0 0 1 5267.5,435 L8.5,435 A2.5,2.5 0 0 1 6,432.5 L6,8.5 A2.5,2.5 0 0 1 8.5,6 " fill="none" style="stroke:#000000;stroke-width:1.5;"/><line style="stroke:#000000;stroke-width:1.5;" x1="6" x2="79" y1="28.2969" y2="28.2969"/><text fill="#000000" font-family="sans-serif" font-size="14" font-weight="bold" lengthAdjust="spacing" textLength="60" x="10" y="20.9951">classes</text></g><!--class Controleur--><g id="elem_Controleur"><rect codeLine="3" fill="#F1F1F1" height="64.2969" id="Controleur" rx="2.5" ry="2.5" style="stroke:#181818;stroke-width:0.5;" width="232" x="2632" y="149"/><ellipse cx="2647" cy="165" fill="#B4A7E5" rx="11" ry="11" style="stroke:#181818;stroke-width:1.0;"/><path d="M2647.9531,161.7813 L2649.6719,161.7813 C2650.0625,161.7813 2650.25,161.75 2650.375,161.6719 C2650.6406,161.5156 2650.7813,161.2344 2650.7813,160.9375 C2650.7813,160.6719 2650.6719,160.4063 2650.4375,160.2344 C2650.2656,160.125 2650.125,160.0938 2649.6719,160.0938 L2644.5313,160.0938 C2644.0938,160.0938 2643.9688,160.1094 2643.8125,160.2031 C2643.5625,160.3594 2643.4063,160.6563 2643.4063,160.9375 C2643.4063,161.2188 2643.5469,161.4688 2643.7656,161.6406 C2643.9219,161.75 2644.1094,161.7813 2644.5313,161.7813 L2646.25,161.7813 L2646.25,168.2969 L2644.5313,168.2969 C2644.0938,168.2969 2643.9688,168.3125 2643.8125,168.4219 C2643.5625,168.5781 2643.4063,168.8594 2643.4063,169.1563 C2643.4063,169.4063 2643.5469,169.6719 2643.7656,169.8281 C2643.9219,169.9531 2644.125,170 2644.5313,170 L2649.6719,170 C2650.4219,170 2650.7813,169.7188 2650.7813,169.1563 C2650.7813,168.875 2650.6719,168.625 2650.4375,168.4531 C2650.2656,168.3281 2650.125,168.2969 2649.6719,168.2969 L2647.9531,168.2969 L2647.9531,161.7813 Z " fill="#000000"/><text fill="#000000" font-family="sans-serif" font-size="14" font-style="italic" lengthAdjust="spacing" textLength="76" x="2661" y="169.8467">Controleur</text><rect fill="#FFFFFF" height="15.9688" style="stroke:#181818;stroke-width:1.0;stroke-dasharray:2.0,2.0;" width="122" x="2745" y="146"/><text fill="#000000" font-family="sans-serif" font-size="12" font-style="italic" lengthAdjust="spacing" textLength="120" x="2746" y="158.1387">Type extends Event</text><line style="stroke:#181818;stroke-width:0.5;" x1="2633" x2="2863" y1="181" y2="181"/><line style="stroke:#181818;stroke-width:0.5;" x1="2633" x2="2863" y1="189" y2="189"/><ellipse cx="2643" cy="202.6484" fill="#84BE84" rx="3" ry="3" style="stroke:#038048;stroke-width:1.0;"/><text fill="#000000" font-family="sans-serif" font-size="14" lengthAdjust="spacing" textLength="184" x="2652" y="205.9951">handle(event: Type): void</text></g><!--class EventHandler--><g id="elem_EventHandler"><rect fill="#F1F1F1" height="48" id="EventHandler" rx="2.5" ry="2.5" style="stroke:#181818;stroke-width:0.5;" width="129" x="2683.5" y="41"/><ellipse cx="2698.5" cy="57" fill="#B4A7E5" rx="11" ry="11" style="stroke:#181818;stroke-width:1.0;"/><path d="M2699.4531,53.7813 L2701.1719,53.7813 C2701.5625,53.7813 2701.75,53.75 2701.875,53.6719 C2702.1406,53.5156 2702.2813,53.2344 2702.2813,52.9375 C2702.2813,52.6719 2702.1719,52.4063 2701.9375,52.2344 C2701.7656,52.125 2701.625,52.0938 2701.1719,52.0938 L2696.0313,52.0938 C2695.5938,52.0938 2695.4688,52.1094 2695.3125,52.2031 C2695.0625,52.3594 2694.9063,52.6563 2694.9063,52.9375 C2694.9063,53.2188 2695.0469,53.4688 2695.2656,53.6406 C2695.4219,53.75 2695.6094,53.7813 2696.0313,53.7813 L2697.75,53.7813 L2697.75,60.2969 L2696.0313,60.2969 C2695.5938,60.2969 2695.4688,60.3125 2695.3125,60.4219 C2695.0625,60.5781 2694.9063,60.8594 2694.9063,61.1563 C2694.9063,61.4063 2695.0469,61.6719 2695.2656,61.8281 C2695.4219,61.9531 2695.625,62 2696.0313,62 L2701.1719,62 C2701.9219,62 2702.2813,61.7188 2702.2813,61.1563 C2702.2813,60.875 2702.1719,60.625 2701.9375,60.4531 C2701.7656,60.3281 2701.625,60.2969 2701.1719,60.2969 L2699.4531,60.2969 L2699.4531,53.7813 Z " fill="#000000"/><text fill="#000000" font-family="sans-serif" font-size="14" font-style="italic" lengthAdjust="spacing" textLength="97" x="2712.5" y="61.8467">EventHandler</text><line style="stroke:#181818;stroke-width:0.5;" x1="2684.5" x2="2811.5" y1="73" y2="73"/><line style="stroke:#181818;stroke-width:0.5;" x1="2684.5" x2="2811.5" y1="81" y2="81"/></g><!--class ControleurColonne--><g id="elem_ControleurColonne"><rect codeLine="7" fill="#F1F1F1" height="113.1875" id="ControleurColonne" rx="2.5" ry="2.5" style="stroke:#181818;stroke-width:0.5;" width="424" x="22" y="289.5"/><ellipse cx="161.75" cy="305.5" fill="#ADD1B2" rx="11" ry="11" style="stroke:#181818;stroke-width:1.0;"/><path d="M164.0938,301.1719 C163.1563,300.7344 162.5625,300.5938 161.6875,300.5938 C159.0625,300.5938 157.0625,302.6719 157.0625,305.3906 L157.0625,306.5156 C157.0625,309.0938 159.1719,310.9844 162.0625,310.9844 C163.2813,310.9844 164.4375,310.6875 165.1875,310.1406 C165.7656,309.7344 166.0938,309.2813 166.0938,308.8906 C166.0938,308.4375 165.7031,308.0469 165.2344,308.0469 C165.0156,308.0469 164.8125,308.125 164.625,308.3125 C164.1719,308.7969 164.1719,308.7969 163.9844,308.8906 C163.5625,309.1563 162.875,309.2813 162.1094,309.2813 C160.0625,309.2813 158.7656,308.1875 158.7656,306.4844 L158.7656,305.3906 C158.7656,303.6094 160.0156,302.2969 161.75,302.2969 C162.3281,302.2969 162.9375,302.4531 163.4063,302.7031 C163.8906,302.9844 164.0625,303.2031 164.1563,303.6094 C164.2188,304.0156 164.25,304.1406 164.3906,304.2656 C164.5313,304.4063 164.7656,304.5156 164.9844,304.5156 C165.25,304.5156 165.5156,304.375 165.6875,304.1563 C165.7969,304 165.8281,303.8125 165.8281,303.3906 L165.8281,301.9688 C165.8281,301.5313 165.8125,301.4063 165.7188,301.25 C165.5625,300.9844 165.2813,300.8438 164.9844,300.8438 C164.6875,300.8438 164.4844,300.9375 164.2656,301.25 L164.0938,301.1719 Z " fill="#000000"/><text fill="#000000" font-family="sans-serif" font-size="14" lengthAdjust="spacing" textLength="136" x="182.25" y="310.3467">ControleurColonne</text><line style="stroke:#181818;stroke-width:0.5;" x1="23" x2="445" y1="321.5" y2="321.5"/><rect fill="none" height="6" style="stroke:#C82930;stroke-width:1.0;" width="6" x="30" y="332.1484"/><text fill="#000000" font-family="sans-serif" font-size="14" lengthAdjust="spacing" textLength="119" x="42" y="338.4951">modele: Tableau</text><rect fill="none" height="6" style="stroke:#C82930;stroke-width:1.0;" width="6" x="30" y="348.4453"/><text fill="#000000" font-family="sans-serif" font-size="14" lengthAdjust="spacing" textLength="125" x="42" y="354.792">colonne: Colonne</text><line style="stroke:#181818;stroke-width:0.5;" x1="23" x2="445" y1="362.0938" y2="362.0938"/><ellipse cx="33" cy="375.7422" fill="#84BE84" rx="3" ry="3" style="stroke:#038048;stroke-width:1.0;"/><text fill="#000000" font-family="sans-serif" font-size="14" lengthAdjust="spacing" textLength="398" x="42" y="379.0889">ControleurColonne(modele: Tableau, colonne: Colonne)</text><ellipse cx="33" cy="392.0391" fill="#84BE84" rx="3" ry="3" style="stroke:#038048;stroke-width:1.0;"/><text fill="#000000" font-family="sans-serif" font-size="14" lengthAdjust="spacing" textLength="282" x="42" y="395.3857">handle(actionEvent: ActionEvent): void</text></g><!--class ControleurColonne_SetOnDragDetected--><g id="elem_ControleurColonne_SetOnDragDetected"><rect codeLine="14" fill="#F1F1F1" height="113.1875" id="ControleurColonne_SetOnDragDetected" rx="2.5" ry="2.5" style="stroke:#181818;stroke-width:0.5;" width="441" x="481.5" y="289.5"/><ellipse cx="552.25" cy="305.5" fill="#ADD1B2" rx="11" ry="11" style="stroke:#181818;stroke-width:1.0;"/><path d="M554.5938,301.1719 C553.6563,300.7344 553.0625,300.5938 552.1875,300.5938 C549.5625,300.5938 547.5625,302.6719 547.5625,305.3906 L547.5625,306.5156 C547.5625,309.0938 549.6719,310.9844 552.5625,310.9844 C553.7813,310.9844 554.9375,310.6875 555.6875,310.1406 C556.2656,309.7344 556.5938,309.2813 556.5938,308.8906 C556.5938,308.4375 556.2031,308.0469 555.7344,308.0469 C555.5156,308.0469 555.3125,308.125 555.125,308.3125 C554.6719,308.7969 554.6719,308.7969 554.4844,308.8906 C554.0625,309.1563 553.375,309.2813 552.6094,309.2813 C550.5625,309.2813 549.2656,308.1875 549.2656,306.4844 L549.2656,305.3906 C549.2656,303.6094 550.5156,302.2969 552.25,302.2969 C552.8281,302.2969 553.4375,302.4531 553.9063,302.7031 C554.3906,302.9844 554.5625,303.2031 554.6563,303.6094 C554.7188,304.0156 554.75,304.1406 554.8906,304.2656 C555.0313,304.4063 555.2656,304.5156 555.4844,304.5156 C555.75,304.5156 556.0156,304.375 556.1875,304.1563 C556.2969,304 556.3281,303.8125 556.3281,303.3906 L556.3281,301.9688 C556.3281,301.5313 556.3125,301.4063 556.2188,301.25 C556.0625,300.9844 555.7813,300.8438 555.4844,300.8438 C555.1875,300.8438 554.9844,300.9375 554.7656,301.25 L554.5938,301.1719 Z " fill="#000000"/><text fill="#000000" font-family="sans-serif" font-size="14" lengthAdjust="spacing" textLength="291" x="572.75" y="310.3467">ControleurColonne_SetOnDragDetected</text><line style="stroke:#181818;stroke-width:0.5;" x1="482.5" x2="921.5" y1="321.5" y2="321.5"/><rect fill="none" height="6" style="stroke:#C82930;stroke-width:1.0;" width="6" x="489.5" y="332.1484"/><text fill="#000000" font-family="sans-serif" font-size="14" lengthAdjust="spacing" textLength="67" x="501.5" y="338.4951">col: VBox</text><rect fill="none" height="6" style="stroke:#C82930;stroke-width:1.0;" width="6" x="489.5" y="348.4453"/><text fill="#000000" font-family="sans-serif" font-size="14" lengthAdjust="spacing" textLength="77" x="501.5" y="354.792">root: HBox</text><line style="stroke:#181818;stroke-width:0.5;" x1="482.5" x2="921.5" y1="362.0938" y2="362.0938"/><ellipse cx="492.5" cy="375.7422" fill="#84BE84" rx="3" ry="3" style="stroke:#038048;stroke-width:1.0;"/><text fill="#000000" font-family="sans-serif" font-size="14" lengthAdjust="spacing" textLength="415" x="501.5" y="379.0889">ControleurColonne_SetOnDragDetected(c: VBox, r: HBox)</text><ellipse cx="492.5" cy="392.0391" fill="#84BE84" rx="3" ry="3" style="stroke:#038048;stroke-width:1.0;"/><text fill="#000000" font-family="sans-serif" font-size="14" lengthAdjust="spacing" textLength="235" x="501.5" y="395.3857">handle(event: MouseEvent): void</text></g><!--class ControleurPlaceholder_OnDragDropped--><g id="elem_ControleurPlaceholder_OnDragDropped"><rect codeLine="22" fill="#F1F1F1" height="145.7813" id="ControleurPlaceholder_OnDragDropped" rx="2.5" ry="2.5" style="stroke:#181818;stroke-width:0.5;" width="561" x="957.5" y="273"/><ellipse cx="1090.75" cy="289" fill="#ADD1B2" rx="11" ry="11" style="stroke:#181818;stroke-width:1.0;"/><path d="M1093.0938,284.6719 C1092.1563,284.2344 1091.5625,284.0938 1090.6875,284.0938 C1088.0625,284.0938 1086.0625,286.1719 1086.0625,288.8906 L1086.0625,290.0156 C1086.0625,292.5938 1088.1719,294.4844 1091.0625,294.4844 C1092.2813,294.4844 1093.4375,294.1875 1094.1875,293.6406 C1094.7656,293.2344 1095.0938,292.7813 1095.0938,292.3906 C1095.0938,291.9375 1094.7031,291.5469 1094.2344,291.5469 C1094.0156,291.5469 1093.8125,291.625 1093.625,291.8125 C1093.1719,292.2969 1093.1719,292.2969 1092.9844,292.3906 C1092.5625,292.6563 1091.875,292.7813 1091.1094,292.7813 C1089.0625,292.7813 1087.7656,291.6875 1087.7656,289.9844 L1087.7656,288.8906 C1087.7656,287.1094 1089.0156,285.7969 1090.75,285.7969 C1091.3281,285.7969 1091.9375,285.9531 1092.4063,286.2031 C1092.8906,286.4844 1093.0625,286.7031 1093.1563,287.1094 C1093.2188,287.5156 1093.25,287.6406 1093.3906,287.7656 C1093.5313,287.9063 1093.7656,288.0156 1093.9844,288.0156 C1094.25,288.0156 1094.5156,287.875 1094.6875,287.6563 C1094.7969,287.5 1094.8281,287.3125 1094.8281,286.8906 L1094.8281,285.4688 C1094.8281,285.0313 1094.8125,284.9063 1094.7188,284.75 C1094.5625,284.4844 1094.2813,284.3438 1093.9844,284.3438 C1093.6875,284.3438 1093.4844,284.4375 1093.2656,284.75 L1093.0938,284.6719 Z " fill="#000000"/><text fill="#000000" font-family="sans-serif" font-size="14" lengthAdjust="spacing" textLength="286" x="1111.25" y="293.8467">ControleurPlaceholder_OnDragDropped</text><line style="stroke:#181818;stroke-width:0.5;" x1="958.5" x2="1517.5" y1="305" y2="305"/><rect fill="none" height="6" style="stroke:#C82930;stroke-width:1.0;" width="6" x="965.5" y="315.6484"/><text fill="#000000" font-family="sans-serif" font-size="14" lengthAdjust="spacing" textLength="116" x="977.5" y="321.9951">root: VueBureau</text><rect fill="none" height="6" style="stroke:#C82930;stroke-width:1.0;" width="6" x="965.5" y="331.9453"/><text fill="#000000" font-family="sans-serif" font-size="14" lengthAdjust="spacing" textLength="131" x="977.5" y="338.292">placeholder: VBox</text><rect fill="none" height="6" style="stroke:#C82930;stroke-width:1.0;" width="6" x="965.5" y="348.2422"/><text fill="#000000" font-family="sans-serif" font-size="14" lengthAdjust="spacing" textLength="90" x="977.5" y="354.5889">tab: Tableau</text><line style="stroke:#181818;stroke-width:0.5;" x1="958.5" x2="1517.5" y1="361.8906" y2="361.8906"/><ellipse cx="968.5" cy="375.5391" fill="#84BE84" rx="3" ry="3" style="stroke:#038048;stroke-width:1.0;"/><text fill="#000000" font-family="sans-serif" font-size="14" lengthAdjust="spacing" textLength="535" x="977.5" y="378.8857">ControleurPlaceholder_OnDragDropped(r: VueBureau, pl: VBox, t: Tableau)</text><ellipse cx="968.5" cy="391.8359" fill="#84BE84" rx="3" ry="3" style="stroke:#038048;stroke-width:1.0;"/><text fill="#000000" font-family="sans-serif" font-size="14" lengthAdjust="spacing" textLength="224" x="977.5" y="395.1826">handle(event: DragEvent): void</text><ellipse cx="968.5" cy="408.1328" fill="#84BE84" rx="3" ry="3" style="stroke:#038048;stroke-width:1.0;"/><text fill="#000000" font-family="sans-serif" font-size="14" lengthAdjust="spacing" textLength="320" x="977.5" y="411.4795">findColumnById(root: HBox, id: String): VBox</text></g><!--class ControleurPlaceholder_OnDragOver--><g id="elem_ControleurPlaceholder_OnDragOver"><rect codeLine="31" fill="#F1F1F1" height="96.8906" id="ControleurPlaceholder_OnDragOver" rx="2.5" ry="2.5" style="stroke:#181818;stroke-width:0.5;" width="352" x="1554" y="297.5"/><ellipse cx="1597.8" cy="313.5" fill="#ADD1B2" rx="11" ry="11" style="stroke:#181818;stroke-width:1.0;"/><path d="M1600.1438,309.1719 C1599.2063,308.7344 1598.6125,308.5938 1597.7375,308.5938 C1595.1125,308.5938 1593.1125,310.6719 1593.1125,313.3906 L1593.1125,314.5156 C1593.1125,317.0938 1595.2219,318.9844 1598.1125,318.9844 C1599.3313,318.9844 1600.4875,318.6875 1601.2375,318.1406 C1601.8156,317.7344 1602.1438,317.2813 1602.1438,316.8906 C1602.1438,316.4375 1601.7531,316.0469 1601.2844,316.0469 C1601.0656,316.0469 1600.8625,316.125 1600.675,316.3125 C1600.2219,316.7969 1600.2219,316.7969 1600.0344,316.8906 C1599.6125,317.1563 1598.925,317.2813 1598.1594,317.2813 C1596.1125,317.2813 1594.8156,316.1875 1594.8156,314.4844 L1594.8156,313.3906 C1594.8156,311.6094 1596.0656,310.2969 1597.8,310.2969 C1598.3781,310.2969 1598.9875,310.4531 1599.4563,310.7031 C1599.9406,310.9844 1600.1125,311.2031 1600.2063,311.6094 C1600.2688,312.0156 1600.3,312.1406 1600.4406,312.2656 C1600.5813,312.4063 1600.8156,312.5156 1601.0344,312.5156 C1601.3,312.5156 1601.5656,312.375 1601.7375,312.1563 C1601.8469,312 1601.8781,311.8125 1601.8781,311.3906 L1601.8781,309.9688 C1601.8781,309.5313 1601.8625,309.4063 1601.7688,309.25 C1601.6125,308.9844 1601.3313,308.8438 1601.0344,308.8438 C1600.7375,308.8438 1600.5344,308.9375 1600.3156,309.25 L1600.1438,309.1719 Z " fill="#000000"/><text fill="#000000" font-family="sans-serif" font-size="14" lengthAdjust="spacing" textLength="256" x="1618.2" y="318.3467">ControleurPlaceholder_OnDragOver</text><line style="stroke:#181818;stroke-width:0.5;" x1="1555" x2="1905" y1="329.5" y2="329.5"/><rect fill="none" height="6" style="stroke:#C82930;stroke-width:1.0;" width="6" x="1562" y="340.1484"/><text fill="#000000" font-family="sans-serif" font-size="14" lengthAdjust="spacing" textLength="131" x="1574" y="346.4951">placeholder: VBox</text><line style="stroke:#181818;stroke-width:0.5;" x1="1555" x2="1905" y1="353.7969" y2="353.7969"/><ellipse cx="1565" cy="367.4453" fill="#84BE84" rx="3" ry="3" style="stroke:#038048;stroke-width:1.0;"/><text fill="#000000" font-family="sans-serif" font-size="14" lengthAdjust="spacing" textLength="326" x="1574" y="370.792">ControleurPlaceholder_OnDragOver(pl: VBox)</text><ellipse cx="1565" cy="383.7422" fill="#84BE84" rx="3" ry="3" style="stroke:#038048;stroke-width:1.0;"/><text fill="#000000" font-family="sans-serif" font-size="14" lengthAdjust="spacing" textLength="224" x="1574" y="387.0889">handle(event: DragEvent): void</text></g><!--class ControleurSysteme--><g id="elem_ControleurSysteme"><rect codeLine="38" fill="#F1F1F1" height="113.1875" id="ControleurSysteme" rx="2.5" ry="2.5" style="stroke:#181818;stroke-width:0.5;" width="429" x="1941.5" y="289.5"/><ellipse cx="2081.75" cy="305.5" fill="#ADD1B2" rx="11" ry="11" style="stroke:#181818;stroke-width:1.0;"/><path d="M2084.0938,301.1719 C2083.1563,300.7344 2082.5625,300.5938 2081.6875,300.5938 C2079.0625,300.5938 2077.0625,302.6719 2077.0625,305.3906 L2077.0625,306.5156 C2077.0625,309.0938 2079.1719,310.9844 2082.0625,310.9844 C2083.2813,310.9844 2084.4375,310.6875 2085.1875,310.1406 C2085.7656,309.7344 2086.0938,309.2813 2086.0938,308.8906 C2086.0938,308.4375 2085.7031,308.0469 2085.2344,308.0469 C2085.0156,308.0469 2084.8125,308.125 2084.625,308.3125 C2084.1719,308.7969 2084.1719,308.7969 2083.9844,308.8906 C2083.5625,309.1563 2082.875,309.2813 2082.1094,309.2813 C2080.0625,309.2813 2078.7656,308.1875 2078.7656,306.4844 L2078.7656,305.3906 C2078.7656,303.6094 2080.0156,302.2969 2081.75,302.2969 C2082.3281,302.2969 2082.9375,302.4531 2083.4063,302.7031 C2083.8906,302.9844 2084.0625,303.2031 2084.1563,303.6094 C2084.2188,304.0156 2084.25,304.1406 2084.3906,304.2656 C2084.5313,304.4063 2084.7656,304.5156 2084.9844,304.5156 C2085.25,304.5156 2085.5156,304.375 2085.6875,304.1563 C2085.7969,304 2085.8281,303.8125 2085.8281,303.3906 L2085.8281,301.9688 C2085.8281,301.5313 2085.8125,301.4063 2085.7188,301.25 C2085.5625,300.9844 2085.2813,300.8438 2084.9844,300.8438 C2084.6875,300.8438 2084.4844,300.9375 2084.2656,301.25 L2084.0938,301.1719 Z " fill="#000000"/><text fill="#000000" font-family="sans-serif" font-size="14" lengthAdjust="spacing" textLength="140" x="2102.25" y="310.3467">ControleurSysteme</text><line style="stroke:#181818;stroke-width:0.5;" x1="1942.5" x2="2369.5" y1="321.5" y2="321.5"/><rect fill="none" height="6" style="stroke:#C82930;stroke-width:1.0;" width="6" x="1949.5" y="332.1484"/><text fill="#000000" font-family="sans-serif" font-size="14" lengthAdjust="spacing" textLength="126" x="1961.5" y="338.4951">modele: Systeme</text><rect fill="none" height="6" style="stroke:#C82930;stroke-width:1.0;" width="6" x="1949.5" y="348.4453"/><text fill="#000000" font-family="sans-serif" font-size="14" lengthAdjust="spacing" textLength="119" x="1961.5" y="354.792">tableau: Tableau</text><line style="stroke:#181818;stroke-width:0.5;" x1="1942.5" x2="2369.5" y1="362.0938" y2="362.0938"/><ellipse cx="1952.5" cy="375.7422" fill="#84BE84" rx="3" ry="3" style="stroke:#038048;stroke-width:1.0;"/><text fill="#000000" font-family="sans-serif" font-size="14" lengthAdjust="spacing" textLength="403" x="1961.5" y="379.0889">ControleurSysteme(modele: Systeme, tableau: Tableau)</text><ellipse cx="1952.5" cy="392.0391" fill="#84BE84" rx="3" ry="3" style="stroke:#038048;stroke-width:1.0;"/><text fill="#000000" font-family="sans-serif" font-size="14" lengthAdjust="spacing" textLength="282" x="1961.5" y="395.3857">handle(actionEvent: ActionEvent): void</text></g><!--class ControleurTableau--><g id="elem_ControleurTableau"><rect codeLine="45" fill="#F1F1F1" height="64.2969" id="ControleurTableau" rx="2.5" ry="2.5" style="stroke:#181818;stroke-width:0.5;" width="308" x="2406" y="314"/><ellipse cx="2489.25" cy="330" fill="#ADD1B2" rx="11" ry="11" style="stroke:#181818;stroke-width:1.0;"/><path d="M2491.5938,325.6719 C2490.6563,325.2344 2490.0625,325.0938 2489.1875,325.0938 C2486.5625,325.0938 2484.5625,327.1719 2484.5625,329.8906 L2484.5625,331.0156 C2484.5625,333.5938 2486.6719,335.4844 2489.5625,335.4844 C2490.7813,335.4844 2491.9375,335.1875 2492.6875,334.6406 C2493.2656,334.2344 2493.5938,333.7813 2493.5938,333.3906 C2493.5938,332.9375 2493.2031,332.5469 2492.7344,332.5469 C2492.5156,332.5469 2492.3125,332.625 2492.125,332.8125 C2491.6719,333.2969 2491.6719,333.2969 2491.4844,333.3906 C2491.0625,333.6563 2490.375,333.7813 2489.6094,333.7813 C2487.5625,333.7813 2486.2656,332.6875 2486.2656,330.9844 L2486.2656,329.8906 C2486.2656,328.1094 2487.5156,326.7969 2489.25,326.7969 C2489.8281,326.7969 2490.4375,326.9531 2490.9063,327.2031 C2491.3906,327.4844 2491.5625,327.7031 2491.6563,328.1094 C2491.7188,328.5156 2491.75,328.6406 2491.8906,328.7656 C2492.0313,328.9063 2492.2656,329.0156 2492.4844,329.0156 C2492.75,329.0156 2493.0156,328.875 2493.1875,328.6563 C2493.2969,328.5 2493.3281,328.3125 2493.3281,327.8906 L2493.3281,326.4688 C2493.3281,326.0313 2493.3125,325.9063 2493.2188,325.75 C2493.0625,325.4844 2492.7813,325.3438 2492.4844,325.3438 C2492.1875,325.3438 2491.9844,325.4375 2491.7656,325.75 L2491.5938,325.6719 Z " fill="#000000"/><text fill="#000000" font-family="sans-serif" font-size="14" lengthAdjust="spacing" textLength="133" x="2509.75" y="334.8467">ControleurTableau</text><line style="stroke:#181818;stroke-width:0.5;" x1="2407" x2="2713" y1="346" y2="346"/><line style="stroke:#181818;stroke-width:0.5;" x1="2407" x2="2713" y1="354" y2="354"/><ellipse cx="2417" cy="367.6484" fill="#84BE84" rx="3" ry="3" style="stroke:#038048;stroke-width:1.0;"/><text fill="#000000" font-family="sans-serif" font-size="14" lengthAdjust="spacing" textLength="282" x="2426" y="370.9951">handle(actionEvent: ActionEvent): void</text></g><!--class ControleurTache--><g id="elem_ControleurTache"><rect codeLine="49" fill="#F1F1F1" height="113.1875" id="ControleurTache" rx="2.5" ry="2.5" style="stroke:#181818;stroke-width:0.5;" width="376" x="2749" y="289.5"/><ellipse cx="2872.75" cy="305.5" fill="#ADD1B2" rx="11" ry="11" style="stroke:#181818;stroke-width:1.0;"/><path d="M2875.0938,301.1719 C2874.1563,300.7344 2873.5625,300.5938 2872.6875,300.5938 C2870.0625,300.5938 2868.0625,302.6719 2868.0625,305.3906 L2868.0625,306.5156 C2868.0625,309.0938 2870.1719,310.9844 2873.0625,310.9844 C2874.2813,310.9844 2875.4375,310.6875 2876.1875,310.1406 C2876.7656,309.7344 2877.0938,309.2813 2877.0938,308.8906 C2877.0938,308.4375 2876.7031,308.0469 2876.2344,308.0469 C2876.0156,308.0469 2875.8125,308.125 2875.625,308.3125 C2875.1719,308.7969 2875.1719,308.7969 2874.9844,308.8906 C2874.5625,309.1563 2873.875,309.2813 2873.1094,309.2813 C2871.0625,309.2813 2869.7656,308.1875 2869.7656,306.4844 L2869.7656,305.3906 C2869.7656,303.6094 2871.0156,302.2969 2872.75,302.2969 C2873.3281,302.2969 2873.9375,302.4531 2874.4063,302.7031 C2874.8906,302.9844 2875.0625,303.2031 2875.1563,303.6094 C2875.2188,304.0156 2875.25,304.1406 2875.3906,304.2656 C2875.5313,304.4063 2875.7656,304.5156 2875.9844,304.5156 C2876.25,304.5156 2876.5156,304.375 2876.6875,304.1563 C2876.7969,304 2876.8281,303.8125 2876.8281,303.3906 L2876.8281,301.9688 C2876.8281,301.5313 2876.8125,301.4063 2876.7188,301.25 C2876.5625,300.9844 2876.2813,300.8438 2875.9844,300.8438 C2875.6875,300.8438 2875.4844,300.9375 2875.2656,301.25 L2875.0938,301.1719 Z " fill="#000000"/><text fill="#000000" font-family="sans-serif" font-size="14" lengthAdjust="spacing" textLength="120" x="2893.25" y="310.3467">ControleurTache</text><line style="stroke:#181818;stroke-width:0.5;" x1="2750" x2="3124" y1="321.5" y2="321.5"/><rect fill="none" height="6" style="stroke:#C82930;stroke-width:1.0;" width="6" x="2757" y="332.1484"/><text fill="#000000" font-family="sans-serif" font-size="14" lengthAdjust="spacing" textLength="119" x="2769" y="338.4951">modele: Tableau</text><rect fill="none" height="6" style="stroke:#C82930;stroke-width:1.0;" width="6" x="2757" y="348.4453"/><text fill="#000000" font-family="sans-serif" font-size="14" lengthAdjust="spacing" textLength="93" x="2769" y="354.792">tache: Tache</text><line style="stroke:#181818;stroke-width:0.5;" x1="2750" x2="3124" y1="362.0938" y2="362.0938"/><ellipse cx="2760" cy="375.7422" fill="#84BE84" rx="3" ry="3" style="stroke:#038048;stroke-width:1.0;"/><text fill="#000000" font-family="sans-serif" font-size="14" lengthAdjust="spacing" textLength="350" x="2769" y="379.0889">ControleurTache(modele: Tableau, tache: Tache)</text><ellipse cx="2760" cy="392.0391" fill="#84BE84" rx="3" ry="3" style="stroke:#038048;stroke-width:1.0;"/><text fill="#000000" font-family="sans-serif" font-size="14" lengthAdjust="spacing" textLength="282" x="2769" y="395.3857">handle(actionEvent: ActionEvent): void</text></g><!--class ControleurTache_SetOnDragDetected--><g id="elem_ControleurTache_SetOnDragDetected"><rect codeLine="57" fill="#F1F1F1" height="129.4844" id="ControleurTache_SetOnDragDetected" rx="2.5" ry="2.5" style="stroke:#181818;stroke-width:0.5;" width="424" x="3160" y="281.5"/><ellipse cx="3230.25" cy="297.5" fill="#ADD1B2" rx="11" ry="11" style="stroke:#181818;stroke-width:1.0;"/><path d="M3232.5938,293.1719 C3231.6563,292.7344 3231.0625,292.5938 3230.1875,292.5938 C3227.5625,292.5938 3225.5625,294.6719 3225.5625,297.3906 L3225.5625,298.5156 C3225.5625,301.0938 3227.6719,302.9844 3230.5625,302.9844 C3231.7813,302.9844 3232.9375,302.6875 3233.6875,302.1406 C3234.2656,301.7344 3234.5938,301.2813 3234.5938,300.8906 C3234.5938,300.4375 3234.2031,300.0469 3233.7344,300.0469 C3233.5156,300.0469 3233.3125,300.125 3233.125,300.3125 C3232.6719,300.7969 3232.6719,300.7969 3232.4844,300.8906 C3232.0625,301.1563 3231.375,301.2813 3230.6094,301.2813 C3228.5625,301.2813 3227.2656,300.1875 3227.2656,298.4844 L3227.2656,297.3906 C3227.2656,295.6094 3228.5156,294.2969 3230.25,294.2969 C3230.8281,294.2969 3231.4375,294.4531 3231.9063,294.7031 C3232.3906,294.9844 3232.5625,295.2031 3232.6563,295.6094 C3232.7188,296.0156 3232.75,296.1406 3232.8906,296.2656 C3233.0313,296.4063 3233.2656,296.5156 3233.4844,296.5156 C3233.75,296.5156 3234.0156,296.375 3234.1875,296.1563 C3234.2969,296 3234.3281,295.8125 3234.3281,295.3906 L3234.3281,293.9688 C3234.3281,293.5313 3234.3125,293.4063 3234.2188,293.25 C3234.0625,292.9844 3233.7813,292.8438 3233.4844,292.8438 C3233.1875,292.8438 3232.9844,292.9375 3232.7656,293.25 L3232.5938,293.1719 Z " fill="#000000"/><text fill="#000000" font-family="sans-serif" font-size="14" lengthAdjust="spacing" textLength="275" x="3250.75" y="302.3467">ControleurTache_SetOnDragDetected</text><line style="stroke:#181818;stroke-width:0.5;" x1="3161" x2="3583" y1="313.5" y2="313.5"/><rect fill="none" height="6" style="stroke:#C82930;stroke-width:1.0;" width="6" x="3168" y="324.1484"/><text fill="#000000" font-family="sans-serif" font-size="14" lengthAdjust="spacing" textLength="87" x="3180" y="330.4951">tache: Node</text><rect fill="none" height="6" style="stroke:#C82930;stroke-width:1.0;" width="6" x="3168" y="340.4453"/><text fill="#000000" font-family="sans-serif" font-size="14" lengthAdjust="spacing" textLength="77" x="3180" y="346.792">root: HBox</text><line style="stroke:#181818;stroke-width:0.5;" x1="3161" x2="3583" y1="354.0938" y2="354.0938"/><ellipse cx="3171" cy="367.7422" fill="#84BE84" rx="3" ry="3" style="stroke:#038048;stroke-width:1.0;"/><text fill="#000000" font-family="sans-serif" font-size="14" lengthAdjust="spacing" textLength="398" x="3180" y="371.0889">ControleurTache_SetOnDragDetected(t: Node, r: HBox)</text><ellipse cx="3171" cy="384.0391" fill="#84BE84" rx="3" ry="3" style="stroke:#038048;stroke-width:1.0;"/><text fill="#000000" font-family="sans-serif" font-size="14" lengthAdjust="spacing" textLength="235" x="3180" y="387.3857">handle(event: MouseEvent): void</text><rect fill="#F24D5C" height="6" style="stroke:#C82930;stroke-width:1.0;" width="6" x="3168" y="397.3359"/><text fill="#000000" font-family="sans-serif" font-size="14" lengthAdjust="spacing" textLength="315" x="3180" y="403.6826">showPlaceholdersOfTasks(node: Node): void</text></g><!--class ControleurTache_SetOnDragDone--><g id="elem_ControleurTache_SetOnDragDone"><rect codeLine="67" fill="#F1F1F1" height="64.2969" id="ControleurTache_SetOnDragDone" rx="2.5" ry="2.5" style="stroke:#181818;stroke-width:0.5;" width="276" x="3619" y="314"/><ellipse cx="3634" cy="330" fill="#ADD1B2" rx="11" ry="11" style="stroke:#181818;stroke-width:1.0;"/><path d="M3636.3438,325.6719 C3635.4063,325.2344 3634.8125,325.0938 3633.9375,325.0938 C3631.3125,325.0938 3629.3125,327.1719 3629.3125,329.8906 L3629.3125,331.0156 C3629.3125,333.5938 3631.4219,335.4844 3634.3125,335.4844 C3635.5313,335.4844 3636.6875,335.1875 3637.4375,334.6406 C3638.0156,334.2344 3638.3438,333.7813 3638.3438,333.3906 C3638.3438,332.9375 3637.9531,332.5469 3637.4844,332.5469 C3637.2656,332.5469 3637.0625,332.625 3636.875,332.8125 C3636.4219,333.2969 3636.4219,333.2969 3636.2344,333.3906 C3635.8125,333.6563 3635.125,333.7813 3634.3594,333.7813 C3632.3125,333.7813 3631.0156,332.6875 3631.0156,330.9844 L3631.0156,329.8906 C3631.0156,328.1094 3632.2656,326.7969 3634,326.7969 C3634.5781,326.7969 3635.1875,326.9531 3635.6563,327.2031 C3636.1406,327.4844 3636.3125,327.7031 3636.4063,328.1094 C3636.4688,328.5156 3636.5,328.6406 3636.6406,328.7656 C3636.7813,328.9063 3637.0156,329.0156 3637.2344,329.0156 C3637.5,329.0156 3637.7656,328.875 3637.9375,328.6563 C3638.0469,328.5 3638.0781,328.3125 3638.0781,327.8906 L3638.0781,326.4688 C3638.0781,326.0313 3638.0625,325.9063 3637.9688,325.75 C3637.8125,325.4844 3637.5313,325.3438 3637.2344,325.3438 C3636.9375,325.3438 3636.7344,325.4375 3636.5156,325.75 L3636.3438,325.6719 Z " fill="#000000"/><text fill="#000000" font-family="sans-serif" font-size="14" lengthAdjust="spacing" textLength="244" x="3648" y="334.8467">ControleurTache_SetOnDragDone</text><line style="stroke:#181818;stroke-width:0.5;" x1="3620" x2="3894" y1="346" y2="346"/><line style="stroke:#181818;stroke-width:0.5;" x1="3620" x2="3894" y1="354" y2="354"/><ellipse cx="3630" cy="367.6484" fill="#84BE84" rx="3" ry="3" style="stroke:#038048;stroke-width:1.0;"/><text fill="#000000" font-family="sans-serif" font-size="14" lengthAdjust="spacing" textLength="224" x="3639" y="370.9951">handle(event: DragEvent): void</text></g><!--class ControleurTachePlaceholder_OnDragDropped--><g id="elem_ControleurTachePlaceholder_OnDragDropped"><rect codeLine="72" fill="#F1F1F1" height="129.4844" id="ControleurTachePlaceholder_OnDragDropped" rx="2.5" ry="2.5" style="stroke:#181818;stroke-width:0.5;" width="604" x="3930" y="281.5"/><ellipse cx="4063.25" cy="297.5" fill="#ADD1B2" rx="11" ry="11" style="stroke:#181818;stroke-width:1.0;"/><path d="M4065.5938,293.1719 C4064.6563,292.7344 4064.0625,292.5938 4063.1875,292.5938 C4060.5625,292.5938 4058.5625,294.6719 4058.5625,297.3906 L4058.5625,298.5156 C4058.5625,301.0938 4060.6719,302.9844 4063.5625,302.9844 C4064.7813,302.9844 4065.9375,302.6875 4066.6875,302.1406 C4067.2656,301.7344 4067.5938,301.2813 4067.5938,300.8906 C4067.5938,300.4375 4067.2031,300.0469 4066.7344,300.0469 C4066.5156,300.0469 4066.3125,300.125 4066.125,300.3125 C4065.6719,300.7969 4065.6719,300.7969 4065.4844,300.8906 C4065.0625,301.1563 4064.375,301.2813 4063.6094,301.2813 C4061.5625,301.2813 4060.2656,300.1875 4060.2656,298.4844 L4060.2656,297.3906 C4060.2656,295.6094 4061.5156,294.2969 4063.25,294.2969 C4063.8281,294.2969 4064.4375,294.4531 4064.9063,294.7031 C4065.3906,294.9844 4065.5625,295.2031 4065.6563,295.6094 C4065.7188,296.0156 4065.75,296.1406 4065.8906,296.2656 C4066.0313,296.4063 4066.2656,296.5156 4066.4844,296.5156 C4066.75,296.5156 4067.0156,296.375 4067.1875,296.1563 C4067.2969,296 4067.3281,295.8125 4067.3281,295.3906 L4067.3281,293.9688 C4067.3281,293.5313 4067.3125,293.4063 4067.2188,293.25 C4067.0625,292.9844 4066.7813,292.8438 4066.4844,292.8438 C4066.1875,292.8438 4065.9844,292.9375 4065.7656,293.25 L4065.5938,293.1719 Z " fill="#000000"/><text fill="#000000" font-family="sans-serif" font-size="14" lengthAdjust="spacing" textLength="329" x="4083.75" y="302.3467">ControleurTachePlaceholder_OnDragDropped</text><line style="stroke:#181818;stroke-width:0.5;" x1="3931" x2="4533" y1="313.5" y2="313.5"/><rect fill="none" height="6" style="stroke:#C82930;stroke-width:1.0;" width="6" x="3938" y="324.1484"/><text fill="#000000" font-family="sans-serif" font-size="14" lengthAdjust="spacing" textLength="116" x="3950" y="330.4951">root: VueBureau</text><rect fill="none" height="6" style="stroke:#C82930;stroke-width:1.0;" width="6" x="3938" y="340.4453"/><text fill="#000000" font-family="sans-serif" font-size="14" lengthAdjust="spacing" textLength="131" x="3950" y="346.792">placeholder: VBox</text><rect fill="none" height="6" style="stroke:#C82930;stroke-width:1.0;" width="6" x="3938" y="356.7422"/><text fill="#000000" font-family="sans-serif" font-size="14" lengthAdjust="spacing" textLength="90" x="3950" y="363.0889">tab: Tableau</text><line style="stroke:#181818;stroke-width:0.5;" x1="3931" x2="4533" y1="370.3906" y2="370.3906"/><ellipse cx="3941" cy="384.0391" fill="#84BE84" rx="3" ry="3" style="stroke:#038048;stroke-width:1.0;"/><text fill="#000000" font-family="sans-serif" font-size="14" lengthAdjust="spacing" textLength="578" x="3950" y="387.3857">ControleurTachePlaceholder_OnDragDropped(r: VueBureau, pl: VBox, t: Tableau)</text><ellipse cx="3941" cy="400.3359" fill="#84BE84" rx="3" ry="3" style="stroke:#038048;stroke-width:1.0;"/><text fill="#000000" font-family="sans-serif" font-size="14" lengthAdjust="spacing" textLength="224" x="3950" y="403.6826">handle(event: DragEvent): void</text></g><!--class ControleurTachePlaceholder_SetOnDragOver--><g id="elem_ControleurTachePlaceholder_SetOnDragOver"><rect codeLine="80" fill="#F1F1F1" height="96.8906" id="ControleurTachePlaceholder_SetOnDragOver" rx="2.5" ry="2.5" style="stroke:#181818;stroke-width:0.5;" width="420" x="4569" y="297.5"/><ellipse cx="4612.8" cy="313.5" fill="#ADD1B2" rx="11" ry="11" style="stroke:#181818;stroke-width:1.0;"/><path d="M4615.1438,309.1719 C4614.2063,308.7344 4613.6125,308.5938 4612.7375,308.5938 C4610.1125,308.5938 4608.1125,310.6719 4608.1125,313.3906 L4608.1125,314.5156 C4608.1125,317.0938 4610.2219,318.9844 4613.1125,318.9844 C4614.3313,318.9844 4615.4875,318.6875 4616.2375,318.1406 C4616.8156,317.7344 4617.1438,317.2813 4617.1438,316.8906 C4617.1438,316.4375 4616.7531,316.0469 4616.2844,316.0469 C4616.0656,316.0469 4615.8625,316.125 4615.675,316.3125 C4615.2219,316.7969 4615.2219,316.7969 4615.0344,316.8906 C4614.6125,317.1563 4613.925,317.2813 4613.1594,317.2813 C4611.1125,317.2813 4609.8156,316.1875 4609.8156,314.4844 L4609.8156,313.3906 C4609.8156,311.6094 4611.0656,310.2969 4612.8,310.2969 C4613.3781,310.2969 4613.9875,310.4531 4614.4563,310.7031 C4614.9406,310.9844 4615.1125,311.2031 4615.2063,311.6094 C4615.2688,312.0156 4615.3,312.1406 4615.4406,312.2656 C4615.5813,312.4063 4615.8156,312.5156 4616.0344,312.5156 C4616.3,312.5156 4616.5656,312.375 4616.7375,312.1563 C4616.8469,312 4616.8781,311.8125 4616.8781,311.3906 L4616.8781,309.9688 C4616.8781,309.5313 4616.8625,309.4063 4616.7688,309.25 C4616.6125,308.9844 4616.3313,308.8438 4616.0344,308.8438 C4615.7375,308.8438 4615.5344,308.9375 4615.3156,309.25 L4615.1438,309.1719 Z " fill="#000000"/><text fill="#000000" font-family="sans-serif" font-size="14" lengthAdjust="spacing" textLength="324" x="4633.2" y="318.3467">ControleurTachePlaceholder_SetOnDragOver</text><line style="stroke:#181818;stroke-width:0.5;" x1="4570" x2="4988" y1="329.5" y2="329.5"/><rect fill="none" height="6" style="stroke:#C82930;stroke-width:1.0;" width="6" x="4577" y="340.1484"/><text fill="#000000" font-family="sans-serif" font-size="14" lengthAdjust="spacing" textLength="131" x="4589" y="346.4951">placeholder: VBox</text><line style="stroke:#181818;stroke-width:0.5;" x1="4570" x2="4988" y1="353.7969" y2="353.7969"/><ellipse cx="4580" cy="367.4453" fill="#84BE84" rx="3" ry="3" style="stroke:#038048;stroke-width:1.0;"/><text fill="#000000" font-family="sans-serif" font-size="14" lengthAdjust="spacing" textLength="394" x="4589" y="370.792">ControleurTachePlaceholder_SetOnDragOver(pl: VBox)</text><ellipse cx="4580" cy="383.7422" fill="#84BE84" rx="3" ry="3" style="stroke:#038048;stroke-width:1.0;"/><text fill="#000000" font-family="sans-serif" font-size="14" lengthAdjust="spacing" textLength="224" x="4589" y="387.0889">handle(event: DragEvent): void</text></g><!--class ControleurVue--><g id="elem_ControleurVue"><rect codeLine="86" fill="#F1F1F1" height="96.8906" id="ControleurVue" rx="2.5" ry="2.5" style="stroke:#181818;stroke-width:0.5;" width="230" x="5024" y="297.5"/><ellipse cx="5082.75" cy="313.5" fill="#ADD1B2" rx="11" ry="11" style="stroke:#181818;stroke-width:1.0;"/><path d="M5085.0938,309.1719 C5084.1563,308.7344 5083.5625,308.5938 5082.6875,308.5938 C5080.0625,308.5938 5078.0625,310.6719 5078.0625,313.3906 L5078.0625,314.5156 C5078.0625,317.0938 5080.1719,318.9844 5083.0625,318.9844 C5084.2813,318.9844 5085.4375,318.6875 5086.1875,318.1406 C5086.7656,317.7344 5087.0938,317.2813 5087.0938,316.8906 C5087.0938,316.4375 5086.7031,316.0469 5086.2344,316.0469 C5086.0156,316.0469 5085.8125,316.125 5085.625,316.3125 C5085.1719,316.7969 5085.1719,316.7969 5084.9844,316.8906 C5084.5625,317.1563 5083.875,317.2813 5083.1094,317.2813 C5081.0625,317.2813 5079.7656,316.1875 5079.7656,314.4844 L5079.7656,313.3906 C5079.7656,311.6094 5081.0156,310.2969 5082.75,310.2969 C5083.3281,310.2969 5083.9375,310.4531 5084.4063,310.7031 C5084.8906,310.9844 5085.0625,311.2031 5085.1563,311.6094 C5085.2188,312.0156 5085.25,312.1406 5085.3906,312.2656 C5085.5313,312.4063 5085.7656,312.5156 5085.9844,312.5156 C5086.25,312.5156 5086.5156,312.375 5086.6875,312.1563 C5086.7969,312 5086.8281,311.8125 5086.8281,311.3906 L5086.8281,309.9688 C5086.8281,309.5313 5086.8125,309.4063 5086.7188,309.25 C5086.5625,308.9844 5086.2813,308.8438 5085.9844,308.8438 C5085.6875,308.8438 5085.4844,308.9375 5085.2656,309.25 L5085.0938,309.1719 Z " fill="#000000"/><text fill="#000000" font-family="sans-serif" font-size="14" lengthAdjust="spacing" textLength="104" x="5103.25" y="318.3467">ControleurVue</text><line style="stroke:#181818;stroke-width:0.5;" x1="5025" x2="5253" y1="329.5" y2="329.5"/><rect fill="none" height="6" style="stroke:#C82930;stroke-width:1.0;" width="6" x="5032" y="340.1484"/><text fill="#000000" font-family="sans-serif" font-size="14" lengthAdjust="spacing" textLength="119" x="5044" y="346.4951">tableau: Tableau</text><rect fill="none" height="6" style="stroke:#C82930;stroke-width:1.0;" width="6" x="5032" y="356.4453"/><text fill="#000000" font-family="sans-serif" font-size="14" lengthAdjust="spacing" textLength="61" x="5044" y="362.792">vue: Vue</text><line style="stroke:#181818;stroke-width:0.5;" x1="5025" x2="5253" y1="370.0938" y2="370.0938"/><ellipse cx="5035" cy="383.7422" fill="#84BE84" rx="3" ry="3" style="stroke:#038048;stroke-width:1.0;"/><text fill="#000000" font-family="sans-serif" font-size="14" lengthAdjust="spacing" textLength="204" x="5044" y="387.0889">handle(e: ActionEvent): void</text></g><!--reverse link EventHandler to Controleur--><g id="link_EventHandler_Controleur"><path d="M2748,107.07 C2748,124.246 2748,129.884 2748,148.755 " fill="none" id="EventHandler-backto-Controleur" style="stroke:#181818;stroke-width:1.0;"/><polygon fill="none" points="2748,89.07,2742,107.07,2754,107.07,2748,89.07" style="stroke:#181818;stroke-width:1.0;"/></g><!--reverse link Controleur to ControleurColonne--><g id="link_Controleur_ControleurColonne"><path d="M2613.8804,182.7118 C2210.1704,185.3988 887.272,199.645 464,273 C440.604,277.055 416.278,282.85 392.584,289.415 " fill="none" id="Controleur-backto-ControleurColonne" style="stroke:#181818;stroke-width:1.0;stroke-dasharray:7.0,7.0;"/><polygon fill="none" points="2631.88,182.592,2613.8405,176.7119,2613.9203,188.7117,2631.88,182.592" style="stroke:#181818;stroke-width:1.0;"/></g><!--reverse link Controleur to ControleurColonne_SetOnDragDetected--><g id="link_Controleur_ControleurColonne_SetOnDragDetected"><path d="M2613.8637,184.5182 C2268.1037,191.5162 1267.16,216.157 940,273 C916.076,277.157 891.175,282.963 866.881,289.493 " fill="none" id="Controleur-backto-ControleurColonne_SetOnDragDetected" style="stroke:#181818;stroke-width:1.0;stroke-dasharray:7.0,7.0;"/><polygon fill="none" points="2631.86,184.154,2613.7423,178.5195,2613.9851,190.517,2631.86,184.154" style="stroke:#181818;stroke-width:1.0;"/></g><!--reverse link Controleur to ControleurPlaceholder_OnDragDropped--><g id="link_Controleur_ControleurPlaceholder_OnDragDropped"><path d="M2613.657,185.0137 C2397.017,191.0667 1935.61,210.449 1537,273 C1530.93,273.952 1524.81,274.964 1518.64,276.028 " fill="none" id="Controleur-backto-ControleurPlaceholder_OnDragDropped" style="stroke:#181818;stroke-width:1.0;stroke-dasharray:7.0,7.0;"/><polygon fill="none" points="2631.65,184.511,2613.4894,179.0161,2613.8246,191.0114,2631.65,184.511" style="stroke:#181818;stroke-width:1.0;"/></g><!--reverse link Controleur to ControleurPlaceholder_OnDragOver--><g id="link_Controleur_ControleurPlaceholder_OnDragOver"><path d="M2613.8589,186.6911 C2452.9189,194.0671 2171.88,214.258 1924,273 C1897.61,279.254 1869.91,288.082 1843.97,297.421 " fill="none" id="Controleur-backto-ControleurPlaceholder_OnDragOver" style="stroke:#181818;stroke-width:1.0;stroke-dasharray:7.0,7.0;"/><polygon fill="none" points="2631.84,185.867,2613.5842,180.6974,2614.1336,192.6848,2631.84,185.867" style="stroke:#181818;stroke-width:1.0;"/></g><!--reverse link Controleur to ControleurSysteme--><g id="link_Controleur_ControleurSysteme"><path d="M2614.5182,214.0868 C2544.0082,231.3808 2469.78,250.297 2389,273 C2370.56,278.184 2351.35,283.784 2332.23,289.492 " fill="none" id="Controleur-backto-ControleurSysteme" style="stroke:#181818;stroke-width:1.0;stroke-dasharray:7.0,7.0;"/><polygon fill="none" points="2632,209.799,2613.0889,208.2595,2615.9474,219.9141,2632,209.799" style="stroke:#181818;stroke-width:1.0;"/></g><!--reverse link Controleur to ControleurTableau--><g id="link_Controleur_ControleurTableau"><path d="M2698.5991,224.8335 C2665.2491,253.7445 2629.4,284.832 2595.99,313.796 " fill="none" id="Controleur-backto-ControleurTableau" style="stroke:#181818;stroke-width:1.0;stroke-dasharray:7.0,7.0;"/><polygon fill="none" points="2712.2,213.043,2694.669,220.2999,2702.5293,229.3672,2712.2,213.043" style="stroke:#181818;stroke-width:1.0;"/></g><!--reverse link Controleur to ControleurTache--><g id="link_Controleur_ControleurTache"><path d="M2797.6221,224.7974 C2822.5821,246.3194 2842.88,263.826 2872.45,289.326 " fill="none" id="Controleur-backto-ControleurTache" style="stroke:#181818;stroke-width:1.0;stroke-dasharray:7.0,7.0;"/><polygon fill="none" points="2783.99,213.043,2793.704,229.3414,2801.5402,220.2534,2783.99,213.043" style="stroke:#181818;stroke-width:1.0;"/></g><!--reverse link Controleur to ControleurTache_SetOnDragDetected--><g id="link_Controleur_ControleurTache_SetOnDragDetected"><path d="M2881.992,210.1196 C2960.972,227.2276 3049.97,247.7 3143,273 C3152.85,275.679 3162.92,278.505 3173.06,281.425 " fill="none" id="Controleur-backto-ControleurTache_SetOnDragDetected" style="stroke:#181818;stroke-width:1.0;stroke-dasharray:7.0,7.0;"/><polygon fill="none" points="2864.4,206.309,2880.7218,215.9836,2883.2622,204.2556,2864.4,206.309" style="stroke:#181818;stroke-width:1.0;"/></g><!--reverse link Controleur to ControleurTache_SetOnDragDone--><g id="link_Controleur_ControleurTache_SetOnDragDone"><path d="M2882.1966,182.7533 C3048.6366,186.0023 3345.17,201.78 3602,273 C3636.45,282.554 3672.81,299.066 3701.65,313.87 " fill="none" id="Controleur-backto-ControleurTache_SetOnDragDone" style="stroke:#181818;stroke-width:1.0;stroke-dasharray:7.0,7.0;"/><polygon fill="none" points="2864.2,182.402,2882.0795,188.7522,2882.3137,176.7544,2864.2,182.402" style="stroke:#181818;stroke-width:1.0;"/></g><!--reverse link Controleur to ControleurTachePlaceholder_OnDragDropped--><g id="link_Controleur_ControleurTachePlaceholder_OnDragDropped"><path d="M2882.3682,186.1958 C3092.7382,193.8308 3531.87,215.409 3913,273 C3929.42,275.481 3946.25,278.335 3963.19,281.445 " fill="none" id="Controleur-backto-ControleurTachePlaceholder_OnDragDropped" style="stroke:#181818;stroke-width:1.0;stroke-dasharray:7.0,7.0;"/><polygon fill="none" points="2864.38,185.543,2882.1505,192.1919,2882.5858,180.1998,2864.38,185.543" style="stroke:#181818;stroke-width:1.0;"/></g><!--reverse link Controleur to ControleurTachePlaceholder_SetOnDragOver--><g id="link_Controleur_ControleurTachePlaceholder_SetOnDragOver"><path d="M2882.2168,184.3072 C3227.6068,190.7792 4226.05,214.1 4552,273 C4583.94,278.771 4617.63,287.773 4649.01,297.482 " fill="none" id="Controleur-backto-ControleurTachePlaceholder_SetOnDragOver" style="stroke:#181818;stroke-width:1.0;stroke-dasharray:7.0,7.0;"/><polygon fill="none" points="2864.22,183.97,2882.1044,190.3062,2882.3293,178.3083,2864.22,183.97" style="stroke:#181818;stroke-width:1.0;"/></g><!--reverse link Controleur to ControleurVue--><g id="link_Controleur_ControleurVue"><path d="M2882.0581,183.8427 C3314.5081,190.1537 4800.05,215.77 5007,273 C5027,278.531 5047.31,287.571 5065.81,297.406 " fill="none" id="Controleur-backto-ControleurVue" style="stroke:#181818;stroke-width:1.0;stroke-dasharray:7.0,7.0;"/><polygon fill="none" points="2864.06,183.58,2881.9705,189.842,2882.1456,177.8433,2864.06,183.58" style="stroke:#181818;stroke-width:1.0;"/></g><!--SRC=[pLNBRi8m4BpdA_QOYFG7egfIUKZjeQKILQ-LIHQ8Qkp8TYW8yUzrOWDvaQIKGxaWEzxPcTbuaf3mYomHGagaH0bxnucPGh4W8SA8CoKunLJSl-yI1DmgP964oGQPUYWldmYBA0eD0FetW5M-TZ5x5a1MxWMmuN7a71mdxrQ07t7A6KE8rmd5jQueFhIGTx3c4LBKO6HEaQHsDpIr0LWGsxy6xbRA_LgbLwPEGXLpDZ427i-BRXsVCrHJDXPaEKQ5eSAeGvbc4i37a6_jMd2kUpuTDmPzMhYXWV11c5AlSH8lF9LOrL4JyaRr_5USHYW-RHl1awHJY27-aU8m5USH9MUqaan5vkLf3lfGS4MXWw_1ZxhL2QnPUePHKcuEBM8MQLVJDHlkdZNwoNiVuYY0cH8nMtgM-A6FLzEDlWZjHZLRCkY4TOzoUqfi6kvi9vLcrlEssTFdaMK6NnwRFUvMolrQvTzlcmM2LY5_Qn2khWibbLLcc_hFgNcKRzVpg5ZatOPyGn9rwB4aNZMvUXWrAsd88cKGVfr5fgDSyU_2wo-dYtSYlwJBDAG1RdkzgvpufG_B_lehbFVu1o7PpkDsINdeOS79yPl4Nply5J5OvQ-DwRmA3Lbt1viKSrihdI_TIySv_000]--></g></svg>